<svg xmlns="http://www.w3.org/2000/svg" viewBox="0 0 122.18 78.95"><title>logo-light</title><g style="isolation:isolate"><g id="e5a9e2f7-c8ec-42a5-a8cf-4a423ce76c87" data-name="Layer 2"><path d="M242.46,256.06a5.92,5.92,0,0,1-4.26,1.67c-4.16,0-5.93-2.87-5.94-5.78A5.64,5.64,0,0,1,238.2,246a5.76,5.76,0,0,1,4.11,1.72l-1.41,1.36a3.84,3.84,0,0,0-2.7-1.06,3.67,3.67,0,0,0-3.86,3.89,3.59,3.59,0,0,0,3.86,3.79,4.13,4.13,0,0,0,2.81-1.13Z" transform="translate(-232.26 -185.88)" style="fill:#fff"/><path d="M253.57,257.47h-2.51l-3.26-3.74h-2v3.74h-2.11V246.25l5.33,0a3.7,3.7,0,0,1,4,3.71,3.32,3.32,0,0,1-2.83,3.52l3.39,3.83Zm-7.81-9.23v3.58H249a1.79,1.79,0,1,0,0-3.58Z" transform="translate(-232.26 -185.88)" style="fill:#fff"/><path d="M259.16,250.89l3-4.62h2.55v.09l-4.47,6.49v4.62H258.1v-4.62l-4.31-6.49v-.09h2.52Z" transform="translate(-232.26 -185.88)" style="fill:#fff"/><path d="M270.88,254.17h-3.16v3.3H265.6v-11.2l5.28,0A4,4,0,1,1,270.88,254.17Zm-3.16-1.93h3.16a2,2,0,1,0,0-4h-3.16Z" transform="translate(-232.26 -185.88)" style="fill:#fff"/><path d="M279.32,248.19h-3.56v-1.92H285v1.92h-3.55v9.28h-2.11Z" transform="translate(-232.26 -185.88)" style="fill:#fff"/><path d="M297.27,251.93c0,2.9-1.81,5.8-5.75,5.8a5.47,5.47,0,0,1-5.76-5.78,5.76,5.76,0,1,1,11.51,0Zm-9.43,0c.05,1.84,1,3.81,3.68,3.81s3.64-2,3.67-3.83-1-4-3.67-4A3.64,3.64,0,0,0,287.84,252Z" transform="translate(-232.26 -185.88)" style="fill:#fff"/><path d="M300.93,246.27v9.25h5.76v2h-7.87v-11.2Z" transform="translate(-232.26 -185.88)" style="fill:#fff"/><path d="M308.19,257.47v-11.2h2.1v11.2Z" transform="translate(-232.26 -185.88)" style="fill:#fff"/><path d="M320.6,249a4.3,4.3,0,0,0-2.85-1.12,3.83,3.83,0,0,0-3.86,4.13,3.55,3.55,0,0,0,3.86,3.75,3.7,3.7,0,0,0,2.53-.9v-2h-2.87V251h4.8v4.72a5.55,5.55,0,0,1-4.46,2c-4.21,0-5.92-2.77-5.92-5.72,0-3.15,2-6.06,5.92-6.06a5.9,5.9,0,0,1,4.16,1.71Z" transform="translate(-232.26 -185.88)" style="fill:#fff"/><path d="M331.57,257.49V253h-5.5v4.53H324V246.28h2.12V251h5.5v-4.72h2.1v11.21Z" transform="translate(-232.26 -185.88)" style="fill:#fff"/><path d="M338.55,248.19H335v-1.92h9.22v1.92h-3.55v9.28h-2.11Z" transform="translate(-232.26 -185.88)" style="fill:#fff"/><path d="M352.41,249a3.24,3.24,0,0,0-2.66-1.25c-1.57,0-2.32.66-2.32,1.49s1.15,1.25,2.49,1.41c2.34.29,4.52.9,4.52,3.57,0,2.5-2.21,3.57-4.71,3.57-2.29,0-4.05-.7-4.88-2.75l1.76-.92a3.18,3.18,0,0,0,3.15,1.78c1.33,0,2.58-.46,2.58-1.68,0-1.06-1.1-1.49-2.59-1.65-2.29-.27-4.4-.88-4.4-3.39,0-2.31,2.27-3.25,4.33-3.27,1.75,0,3.56.5,4.41,2.23Z" transform="translate(-232.26 -185.88)" style="fill:#fff"/><path d="M232.72,264.78h-.25v-3.56h1.95v.23h-1.7V263h1.61v.23h-1.61Z" transform="translate(-232.26 -185.88)" style="fill:#fff"/><path d="M238,263a2,2,0,0,1-.43,1.34,1.63,1.63,0,0,1-2.33,0,2,2,0,0,1-.43-1.35,2,2,0,0,1,.43-1.34,1.51,1.51,0,0,1,1.17-.49,1.45,1.45,0,0,1,1.17.5A2,2,0,0,1,238,263Zm-2.92,0a1.8,1.8,0,0,0,.35,1.18,1.17,1.17,0,0,0,1,.42,1.2,1.2,0,0,0,1-.42,1.79,1.79,0,0,0,.34-1.18,1.77,1.77,0,0,0-.34-1.18,1.18,1.18,0,0,0-1-.41,1.19,1.19,0,0,0-1,.41A1.8,1.8,0,0,0,235.05,263Z" transform="translate(-232.26 -185.88)" style="fill:#fff"/><path d="M239,263.23v1.55h-.25v-3.56h.85a1.55,1.55,0,0,1,1,.25.85.85,0,0,1,.31.73,1,1,0,0,1-.19.61,1,1,0,0,1-.57.35l1,1.62h-.3l-.92-1.55Zm0-.21h.68a1.12,1.12,0,0,0,.7-.2.76.76,0,0,0,.25-.6.7.7,0,0,0-.25-.59,1.35,1.35,0,0,0-.79-.19H239Z" transform="translate(-232.26 -185.88)" style="fill:#fff"/><path d="M243.87,263.17l1-1.95h.27L244,263.41v1.37h-.26v-1.35l-1.19-2.21h.28Z" transform="translate(-232.26 -185.88)" style="fill:#fff"/><path d="M248.68,263a2,2,0,0,1-.42,1.34,1.64,1.64,0,0,1-2.34,0,2.36,2.36,0,0,1,0-2.69,1.51,1.51,0,0,1,1.17-.49,1.45,1.45,0,0,1,1.17.5A2,2,0,0,1,248.68,263Zm-2.91,0a1.8,1.8,0,0,0,.34,1.18,1.19,1.19,0,0,0,1,.42,1.17,1.17,0,0,0,1-.42,1.79,1.79,0,0,0,.34-1.18,1.77,1.77,0,0,0-.34-1.18,1.17,1.17,0,0,0-1-.41,1.19,1.19,0,0,0-1,.41A1.8,1.8,0,0,0,245.77,263Z" transform="translate(-232.26 -185.88)" style="fill:#fff"/><path d="M252.12,261.22v2.31a1.3,1.3,0,0,1-.35,1,1.38,1.38,0,0,1-1,.34,1.3,1.3,0,0,1-1-.34,1.34,1.34,0,0,1-.35-1v-2.3h.25v2.31a1,1,0,0,0,1.09,1.08,1,1,0,0,0,1.07-1.06v-2.33Z" transform="translate(-232.26 -185.88)" style="fill:#fff"/><path d="M256.11,263.53h-1.45l-.5,1.25h-.27l1.43-3.57h.16l1.4,3.57h-.28Zm-1.36-.23H256l-.48-1.28q-.06-.15-.15-.42a3.44,3.44,0,0,1-.14.42Z" transform="translate(-232.26 -185.88)" style="fill:#fff"/><path d="M260,264.78h-.25l-2.12-3.16h0c0,.38,0,.66,0,.85v2.31h-.23v-3.56h.24l2.11,3.16h0c0-.29,0-.57,0-.83v-2.33H260Z" transform="translate(-232.26 -185.88)" style="fill:#fff"/><path d="M263.69,263a1.76,1.76,0,0,1-.47,1.35,1.87,1.87,0,0,1-1.38.46H261v-3.56h1a1.75,1.75,0,0,1,1.3.45A1.78,1.78,0,0,1,263.69,263Zm-.27,0a1.37,1.37,0,0,0-1.53-1.54h-.66v3.12h.59A1.4,1.4,0,0,0,263.42,263Z" transform="translate(-232.26 -185.88)" style="fill:#fff"/><path d="M267.76,264.78h-1.95v-3.56h1.95v.23h-1.7v1.35h1.6V263h-1.6v1.53h1.7Z" transform="translate(-232.26 -185.88)" style="fill:#fff"/><path d="M270.67,261.22h.27l-1.33,3.56h-.22l-1.33-3.56h.26l.9,2.43c.14.36.23.64.28.82a5.24,5.24,0,0,1,.19-.57Z" transform="translate(-232.26 -185.88)" style="fill:#fff"/><path d="M273.39,264.78h-1.95v-3.56h1.95v.23h-1.7v1.35h1.61V263h-1.61v1.53h1.7Z" transform="translate(-232.26 -185.88)" style="fill:#fff"/><path d="M274.45,263.23v1.55h-.25v-3.56h.85a1.55,1.55,0,0,1,1,.25.85.85,0,0,1,.31.73,1,1,0,0,1-.19.61,1,1,0,0,1-.57.35l1,1.62h-.3l-.92-1.55Zm0-.21h.68a1.12,1.12,0,0,0,.7-.2.76.76,0,0,0,.25-.6.7.7,0,0,0-.25-.59,1.35,1.35,0,0,0-.79-.19h-.59Z" transform="translate(-232.26 -185.88)" style="fill:#fff"/><path d="M278,263.17l1-1.95h.27l-1.19,2.19v1.37h-.26v-1.35l-1.19-2.21H277Z" transform="translate(-232.26 -185.88)" style="fill:#fff"/><path d="M282.8,263a2,2,0,0,1-.43,1.34,1.45,1.45,0,0,1-1.17.49,1.48,1.48,0,0,1-1.17-.49,2,2,0,0,1-.42-1.35,2,2,0,0,1,.43-1.34,1.48,1.48,0,0,1,1.17-.49,1.45,1.45,0,0,1,1.16.5A1.93,1.93,0,0,1,282.8,263Zm-2.92,0a1.8,1.8,0,0,0,.34,1.18,1.37,1.37,0,0,0,2,0,1.84,1.84,0,0,0,.34-1.18,1.82,1.82,0,0,0-.34-1.18,1.19,1.19,0,0,0-1-.41,1.18,1.18,0,0,0-1,.41A1.8,1.8,0,0,0,279.88,263Z" transform="translate(-232.26 -185.88)" style="fill:#fff"/><path d="M286.21,264.78H286l-2.12-3.16h0c0,.38,0,.66,0,.85v2.31h-.23v-3.56h.24l2.11,3.16h0c0-.29,0-.57,0-.83v-2.33h.24Z" transform="translate(-232.26 -185.88)" style="fill:#fff"/><path d="M289.16,264.78h-1.94v-3.56h1.94v.23h-1.7v1.35h1.61V263h-1.61v1.53h1.7Z" transform="translate(-232.26 -185.88)" style="fill:#fff"/><path d="M293.23,263.87a.84.84,0,0,1-.32.7,1.33,1.33,0,0,1-.87.26,2.71,2.71,0,0,1-1-.14v-.25a2.56,2.56,0,0,0,1,.16,1.05,1.05,0,0,0,.69-.2.64.64,0,0,0,.26-.52.59.59,0,0,0-.09-.34.71.71,0,0,0-.27-.24,3.36,3.36,0,0,0-.57-.24,1.76,1.76,0,0,1-.75-.41.78.78,0,0,1-.21-.58.8.8,0,0,1,.31-.65,1.24,1.24,0,0,1,.81-.25,2.29,2.29,0,0,1,.94.19l-.09.21a2.28,2.28,0,0,0-.85-.18,1,1,0,0,0-.63.18.69.69,0,0,0-.16.82.67.67,0,0,0,.24.23,2.45,2.45,0,0,0,.56.24,3.42,3.42,0,0,1,.62.28.92.92,0,0,1,.31.31A.87.87,0,0,1,293.23,263.87Z" transform="translate(-232.26 -185.88)" style="fill:#fff"/><path d="M296.61,261.22v2.31a1.27,1.27,0,0,1-.36,1,1.37,1.37,0,0,1-1,.34,1.32,1.32,0,0,1-1-.34,1.34,1.34,0,0,1-.34-1v-2.3h.25v2.31a1,1,0,0,0,1.09,1.08,1,1,0,0,0,1.07-1.06v-2.33Z" transform="translate(-232.26 -185.88)" style="fill:#fff"/><path d="M299.54,263.87a.84.84,0,0,1-.32.7,1.33,1.33,0,0,1-.87.26,2.71,2.71,0,0,1-1-.14v-.25a2.56,2.56,0,0,0,1,.16,1.05,1.05,0,0,0,.69-.2.64.64,0,0,0,.26-.52.68.68,0,0,0-.08-.34.84.84,0,0,0-.28-.24,3.36,3.36,0,0,0-.57-.24,1.83,1.83,0,0,1-.75-.41.78.78,0,0,1-.21-.58.8.8,0,0,1,.31-.65,1.24,1.24,0,0,1,.81-.25,2.29,2.29,0,0,1,.94.19l-.09.21a2.28,2.28,0,0,0-.85-.18,1,1,0,0,0-.63.18.69.69,0,0,0-.16.82.67.67,0,0,0,.24.23,2.45,2.45,0,0,0,.56.24,3.42,3.42,0,0,1,.62.28.92.92,0,0,1,.31.31A.87.87,0,0,1,299.54,263.87Z" transform="translate(-232.26 -185.88)" style="fill:#fff"/><path d="M301.23,264.78H301v-3.33h-1.16v-.23h2.56v.23h-1.15Z" transform="translate(-232.26 -185.88)" style="fill:#fff"/><path d="M304.63,263.53h-1.45l-.49,1.25h-.28l1.43-3.57H304l1.41,3.57h-.28Zm-1.36-.23h1.28l-.49-1.28a4.06,4.06,0,0,1-.14-.42,3.4,3.4,0,0,1-.15.42Z" transform="translate(-232.26 -185.88)" style="fill:#fff"/><path d="M305.91,264.78v-3.56h.25v3.56Z" transform="translate(-232.26 -185.88)" style="fill:#fff"/><path d="M309.76,264.78h-.25l-2.11-3.16h0c0,.38,0,.66,0,.85v2.31h-.24v-3.56h.25l2.11,3.16h0c0-.29,0-.57,0-.83v-2.33h.24Z" transform="translate(-232.26 -185.88)" style="fill:#fff"/><path d="M312.48,263.53H311l-.5,1.25h-.28l1.44-3.57h.16l1.4,3.57H313Zm-1.35-.23h1.27l-.48-1.28q-.06-.15-.15-.42a3.44,3.44,0,0,1-.14.42Z" transform="translate(-232.26 -185.88)" style="fill:#fff"/><path d="M313.76,261.22h1a1.66,1.66,0,0,1,1,.22.78.78,0,0,1,.31.68.73.73,0,0,1-.19.52,1,1,0,0,1-.55.26v0a1.05,1.05,0,0,1,.63.27.79.79,0,0,1,.2.57.92.92,0,0,1-.33.76,1.38,1.38,0,0,1-.92.26h-1.1Zm.25,1.59h.79a1.27,1.27,0,0,0,.73-.17.61.61,0,0,0,.23-.52.57.57,0,0,0-.26-.52,1.45,1.45,0,0,0-.77-.16H314Zm0,.22v1.53h.84c.66,0,1-.26,1-.8s-.35-.73-1-.73Z" transform="translate(-232.26 -185.88)" style="fill:#fff"/><path d="M316.89,264.78v-3.56h.25v3.33h1.7v.23Z" transform="translate(-232.26 -185.88)" style="fill:#fff"/><path d="M321.4,264.78h-1.94v-3.56h1.94v.23h-1.69v1.35h1.6V263h-1.6v1.53h1.69Z" transform="translate(-232.26 -185.88)" style="fill:#fff"/><path d="M325.08,264.78l-1.33-3.29h0c0,.2,0,.41,0,.62v2.67h-.24v-3.56h.38l1.27,3.13h0l1.26-3.13h.38v3.56h-.25v-2.7a5.78,5.78,0,0,1,0-.58h0l-1.34,3.28Z" transform="translate(-232.26 -185.88)" style="fill:#fff"/><path d="M329.53,263.53h-1.45l-.49,1.25h-.28l1.43-3.57h.16l1.41,3.57H330Zm-1.36-.23h1.28L329,262a4.06,4.06,0,0,1-.14-.42,3.4,3.4,0,0,1-.15.42Z" transform="translate(-232.26 -185.88)" style="fill:#fff"/><path d="M333.21,264.78h-.31l-1.36-1.88-.48.42v1.46h-.25v-3.56h.25v1.85l.4-.39,1.39-1.46h.32l-1.46,1.51Z" transform="translate(-232.26 -185.88)" style="fill:#fff"/><path d="M335.66,264.78h-2v-3.56h2v.23H334v1.35h1.61V263H334v1.53h1.7Z" transform="translate(-232.26 -185.88)" style="fill:#fff"/><path d="M339.33,264.78,338,261.49h0c0,.2,0,.41,0,.62v2.67h-.24v-3.56h.39l1.26,3.13h0l1.26-3.13h.37v3.56h-.25v-2.7a5.78,5.78,0,0,1,0-.58h0l-1.33,3.28Z" transform="translate(-232.26 -185.88)" style="fill:#fff"/><path d="M345.07,263a2,2,0,0,1-.43,1.34,1.45,1.45,0,0,1-1.17.49,1.48,1.48,0,0,1-1.17-.49,2,2,0,0,1-.42-1.35,2,2,0,0,1,.43-1.34,1.63,1.63,0,0,1,2.34,0A2,2,0,0,1,345.07,263Zm-2.92,0a1.86,1.86,0,0,0,.34,1.18,1.37,1.37,0,0,0,2,0,1.84,1.84,0,0,0,.34-1.18,1.82,1.82,0,0,0-.34-1.18,1.19,1.19,0,0,0-1-.41,1.18,1.18,0,0,0-1,.41A1.8,1.8,0,0,0,342.15,263Z" transform="translate(-232.26 -185.88)" style="fill:#fff"/><path d="M348.48,264.78h-.25l-2.11-3.16h0c0,.38,0,.66,0,.85v2.31h-.24v-3.56h.24l2.11,3.16h0c0-.29,0-.57,0-.83v-2.33h.24Z" transform="translate(-232.26 -185.88)" style="fill:#fff"/><path d="M351.43,264.78h-1.94v-3.56h1.94v.23h-1.69v1.35h1.6V263h-1.6v1.53h1.69Z" transform="translate(-232.26 -185.88)" style="fill:#fff"/><path d="M353.06,263.17l1-1.95h.27l-1.19,2.19v1.37h-.25v-1.35l-1.19-2.21H352Z" transform="translate(-232.26 -185.88)" style="fill:#fff"/><path d="M293.78,217.51l2.21,2.13a1.59,1.59,0,0,1,.48,1.12,1.55,1.55,0,0,1-.45,1.14,1.51,1.51,0,0,1-.73.43l-.19.06c0,.52,0,1.33,0,1.54v.31l.3-.05a3.44,3.44,0,0,0,2.88-3.46,3.38,3.38,0,0,0-1-2.41l-2.21-2.14a.92.92,0,0,0-.65-.26,1,1,0,0,0-.65.28A.94.94,0,0,0,293.78,217.51Z" transform="translate(-232.26 -185.88)" style="fill:#fff"/><path d="M290.27,221.13l2.21,2.13a3.42,3.42,0,0,0,1.53.86l.33.09,0-1.91-.14-.07a1.52,1.52,0,0,1-.41-.29l-2.21-2.13a.91.91,0,0,0-.65-.26h0a.88.88,0,0,0-.65.28A.93.93,0,0,0,290.27,221.13Z" transform="translate(-232.26 -185.88)" style="fill:#fff"/><path d="M293.72,217.44l.06.07,2.21,2.13a1.59,1.59,0,0,1,.48,1.12,1.55,1.55,0,0,1-.45,1.14L296,222a1.62,1.62,0,0,1-.66.35l-.19.06c0,.33,0,.76,0,.87v.32l.31-.06a2.79,2.79,0,0,0,1.38-4.73L294,216l-.12.09,0,0h0l-.06,0A.93.93,0,0,0,293.72,217.44Z" transform="translate(-232.26 -185.88)" style="fill:#fff;opacity:0.30000000000000004;mix-blend-mode:multiply"/><path d="M291.48,219.75l-.08-.06a1,1,0,0,0-.5-.14h0a.88.88,0,0,0-.65.28h0a1.07,1.07,0,0,0-.15.22l2.83,2.74a2.83,2.83,0,0,0,1.05.64l.35.12,0-1.25-.14-.07a1.52,1.52,0,0,1-.41-.29l-2.21-2.13-.06-.06Z" transform="translate(-232.26 -185.88)" style="fill:#fff;opacity:0.30000000000000004;mix-blend-mode:multiply"/><path d="M295.13,215.36a2,2,0,0,1,.41.29l2.2,2.13a.9.9,0,0,0,.66.26.88.88,0,0,0,.64-.28.92.92,0,0,0,0-1.3l-2.2-2.13a3.44,3.44,0,0,0-1.53-.86l-.34-.09,0,1.91Z" transform="translate(-232.26 -185.88)" style="fill:#fff"/><path d="M292,219.28l2.2,2.13a1,1,0,0,0,.66.26,1,1,0,0,0,.64-.28.93.93,0,0,0,0-1.31l-2.2-2.13a1.59,1.59,0,0,1,0-2.26,1.51,1.51,0,0,1,.73-.43l.2-.06,0-1.84-.3,0a3.4,3.4,0,0,0-1.92,1,3.44,3.44,0,0,0,.08,4.87Z" transform="translate(-232.26 -185.88)" style="fill:#fff"/><path d="M295.13,215.36a2,2,0,0,1,.41.29l2.2,2.13a.9.9,0,0,0,.66.26h.29l.05,0,0,0,0,0,0,0,0,0,0,0,0,0,0,0,0,0a.69.69,0,0,0,.16-.22l-2.84-2.74a2.74,2.74,0,0,0-1-.64L295,214l0,1.25Z" transform="translate(-232.26 -185.88)" style="fill:#fff;opacity:0.30000000000000004;mix-blend-mode:multiply"/><path d="M292.82,216.83a1.55,1.55,0,0,1,.45-1.14,1.51,1.51,0,0,1,.73-.43l.2-.06,0-1.19-.31.06a2.78,2.78,0,0,0-1.39,4.73l2.84,2.75a.83.83,0,0,0,.21-.16l.05-.06h0a.21.21,0,0,0,0-.06l0,0s0,0,0-.05l0,0s0,0,0,0,0,0,0,0v0a.14.14,0,0,1,0-.06v0l0-.06v0s0,0,0-.07v-.13a.11.11,0,0,0,0-.05.2.2,0,0,0,0-.07h0a1,1,0,0,0-.26-.48l-2.2-2.13A1.57,1.57,0,0,1,292.82,216.83Z" transform="translate(-232.26 -185.88)" style="fill:#fff;opacity:0.30000000000000004;mix-blend-mode:multiply"/><path d="M320.63,231a4.58,4.58,0,0,0-6.27,1.59,3.91,3.91,0,0,0-.24.51l-17.34-.26L298,230h6.59l-.67,1.58h3.52l7.21-12.61L299.79,193.4a4.56,4.56,0,1,0-3.48,1.64,5.32,5.32,0,0,0,.56-.06l9,15.6-3.5.39-3.3-5.8,1.71-.19L299,201.91l-14.52,0-14.86,25.54a4.5,4.5,0,0,0-3.09.5,4.58,4.58,0,1,0,6.24,1.72,5.4,5.4,0,0,0-.33-.46l9.15-15.55,1.9,2.59-3.38,5.67-1-1.39-1.8,3,7.14,12.64,29.54.31a4.57,4.57,0,1,0,6.65-5.43Zm-38.77-5.94,8.47-14.22,0-.06,1.77-3.11-3.57,0-3.39,5.69-1.91-2.6,3.37-5.73,8.74,0,8.24,14.49,1.81,3.06,1.78-3.12L304,213.84l3.52-.4,3.33,5.79-4.35,7.58H286.21l1.87,3.15h6.64l-1.2,2.87-7.38-.11Z" transform="translate(-232.26 -185.88)" style="fill:#fff"/></g></g></svg>