<svg xmlns="http://www.w3.org/2000/svg" viewBox="0 0 122.18 78.83"><title>logo</title><g style="isolation:isolate"><g id="b60601fc-f796-4772-9536-536b70d53280" data-name="Layer 2"><path d="M275.89,333.11a5.94,5.94,0,0,1-4.26,1.66c-4.16,0-5.92-2.86-5.94-5.78a5.64,5.64,0,0,1,5.94-5.9,5.75,5.75,0,0,1,4.11,1.71l-1.41,1.36a3.84,3.84,0,0,0-2.7-1.06,3.67,3.67,0,0,0-3.86,3.89,3.6,3.6,0,0,0,3.86,3.8,4.14,4.14,0,0,0,2.82-1.14Z" transform="translate(-265.69 -262.92)" style="fill:#27405c"/><path d="M287,334.52h-2.52l-3.26-3.75h-2v3.75h-2.11V323.3h5.33a3.72,3.72,0,0,1,4,3.72,3.34,3.34,0,0,1-2.84,3.52l3.4,3.82Zm-7.82-9.24v3.59h3.22a1.8,1.8,0,1,0,0-3.59Z" transform="translate(-265.69 -262.92)" style="fill:#27405c"/><path d="M292.59,327.94l3-4.63h2.55v.1l-4.47,6.48v4.63h-2.11v-4.63l-4.3-6.48v-.1h2.51Z" transform="translate(-265.69 -262.92)" style="fill:#27405c"/><path d="M304.32,331.22h-3.17v3.3H299V323.31h5.29A4,4,0,1,1,304.32,331.22Zm-3.17-1.94h3.17a2,2,0,1,0,0-4h-3.17Z" transform="translate(-265.69 -262.92)" style="fill:#27405c"/><path d="M312.75,325.23h-3.56v-1.92h9.22v1.92h-3.55v9.29h-2.11Z" transform="translate(-265.69 -262.92)" style="fill:#27405c"/><path d="M330.7,329c0,2.9-1.81,5.79-5.74,5.79a5.46,5.46,0,0,1-5.77-5.78,5.76,5.76,0,1,1,11.51,0Zm-9.43,0c.05,1.84,1,3.81,3.69,3.81s3.63-2,3.66-3.83-1-4-3.66-4A3.65,3.65,0,0,0,321.27,329Z" transform="translate(-265.69 -262.92)" style="fill:#27405c"/><path d="M334.36,323.31v9.25h5.77v2h-7.88V323.31Z" transform="translate(-265.69 -262.92)" style="fill:#f89838"/><path d="M341.63,334.52V323.31h2.09v11.21Z" transform="translate(-265.69 -262.92)" style="fill:#f89838"/><path d="M354,326.05a4.28,4.28,0,0,0-2.85-1.12,3.82,3.82,0,0,0-3.86,4.13,3.54,3.54,0,0,0,3.86,3.74,3.74,3.74,0,0,0,2.53-.89v-2h-2.87V328h4.81v4.73a5.6,5.6,0,0,1-4.47,2c-4.21,0-5.92-2.77-5.92-5.71,0-3.15,2-6.07,5.92-6.07a5.94,5.94,0,0,1,4.16,1.71Z" transform="translate(-265.69 -262.92)" style="fill:#f89838"/><path d="M365,334.53V330h-5.5v4.53h-2.11v-11.2h2.11v4.72H365v-4.72h2.1v11.2Z" transform="translate(-265.69 -262.92)" style="fill:#f89838"/><path d="M372,325.23h-3.56v-1.92h9.22v1.92h-3.55v9.29H372Z" transform="translate(-265.69 -262.92)" style="fill:#f89838"/><path d="M385.84,326a3.22,3.22,0,0,0-2.66-1.25c-1.57,0-2.32.65-2.32,1.49s1.15,1.25,2.5,1.41c2.33.28,4.51.89,4.51,3.57,0,2.49-2.21,3.56-4.71,3.56-2.29,0-4.05-.7-4.88-2.75l1.76-.91a3.2,3.2,0,0,0,3.16,1.78c1.32,0,2.57-.47,2.57-1.68s-1.1-1.49-2.59-1.65c-2.29-.28-4.4-.88-4.4-3.4,0-2.3,2.27-3.25,4.34-3.26,1.74,0,3.55.49,4.4,2.22Z" transform="translate(-265.69 -262.92)" style="fill:#f89838"/><path d="M267.46,341.71h-.68v-3.26h1.87V339h-1.19v.84h1.11v.56h-1.11Z" transform="translate(-265.69 -262.92)" style="fill:#27405c"/><path d="M272.24,340.08a1.75,1.75,0,0,1-.4,1.24,1.72,1.72,0,0,1-2.3,0,2.14,2.14,0,0,1,0-2.49,1.55,1.55,0,0,1,1.16-.43,1.52,1.52,0,0,1,1.15.43A1.82,1.82,0,0,1,272.24,340.08Zm-2.37,0a1.42,1.42,0,0,0,.2.82.75.75,0,0,0,.62.28c.55,0,.83-.37.83-1.1s-.27-1.1-.82-1.1a.73.73,0,0,0-.62.27A1.37,1.37,0,0,0,269.87,340.08Z" transform="translate(-265.69 -262.92)" style="fill:#27405c"/><path d="M273.61,340.46v1.25h-.69v-3.26h.95a1.55,1.55,0,0,1,1,.25.86.86,0,0,1,.32.73.84.84,0,0,1-.16.51,1,1,0,0,1-.45.35c.49.73.81,1.21,1,1.42h-.76l-.78-1.25Zm0-.56h.22a.91.91,0,0,0,.49-.11.39.39,0,0,0,.15-.34.34.34,0,0,0-.16-.33.9.9,0,0,0-.49-.1h-.21Z" transform="translate(-265.69 -262.92)" style="fill:#27405c"/><path d="M278.13,339.8l.68-1.35h.75l-1.08,2v1.27h-.69v-1.24l-1.08-2h.75Z" transform="translate(-265.69 -262.92)" style="fill:#27405c"/><path d="M282.92,340.08a1.75,1.75,0,0,1-.4,1.24,1.72,1.72,0,0,1-2.3,0,2.14,2.14,0,0,1,0-2.49,1.55,1.55,0,0,1,1.16-.43,1.52,1.52,0,0,1,1.15.43A1.82,1.82,0,0,1,282.92,340.08Zm-2.37,0a1.42,1.42,0,0,0,.2.82.75.75,0,0,0,.62.28c.55,0,.83-.37.83-1.1s-.27-1.1-.82-1.1a.73.73,0,0,0-.62.27A1.37,1.37,0,0,0,280.55,340.08Z" transform="translate(-265.69 -262.92)" style="fill:#27405c"/><path d="M286.25,338.45v2.11a1.18,1.18,0,0,1-.16.63,1,1,0,0,1-.47.42,1.59,1.59,0,0,1-.72.15,1.38,1.38,0,0,1-1-.33,1.12,1.12,0,0,1-.34-.88v-2.1h.69v2a.84.84,0,0,0,.15.55.62.62,0,0,0,.5.18.61.61,0,0,0,.49-.18.85.85,0,0,0,.15-.56v-2Z" transform="translate(-265.69 -262.92)" style="fill:#27405c"/><path d="M290.23,341.71l-.24-.77h-1.18l-.24.77h-.75l1.15-3.27h.85l1.15,3.27Zm-.4-1.35-.37-1.2a1.89,1.89,0,0,1-.06-.21q-.07.29-.42,1.41Z" transform="translate(-265.69 -262.92)" style="fill:#27405c"/><path d="M294.27,341.71h-.87L292,339.25h0c0,.43,0,.74,0,.93v1.53h-.62v-3.26h.87l1.42,2.44h0c0-.42,0-.72,0-.89v-1.55h.62Z" transform="translate(-265.69 -262.92)" style="fill:#27405c"/><path d="M297.8,340.05a1.57,1.57,0,0,1-.46,1.23,1.86,1.86,0,0,1-1.32.43h-.93v-3.26h1a1.7,1.7,0,0,1,1.24.43A1.55,1.55,0,0,1,297.8,340.05Zm-.72,0q0-1.05-.93-1.05h-.36v2.12h.29C296.75,341.14,297.08,340.78,297.08,340.07Z" transform="translate(-265.69 -262.92)" style="fill:#27405c"/><path d="M301.54,341.71h-1.88v-3.26h1.88V339h-1.19v.72h1.1v.56h-1.1v.84h1.19Z" transform="translate(-265.69 -262.92)" style="fill:#27405c"/><path d="M304.07,338.45h.7l-1.11,3.26h-.75l-1.11-3.26h.7l.62,1.94c0,.12.06.25.1.4s.06.26.07.32a5.46,5.46,0,0,1,.17-.72Z" transform="translate(-265.69 -262.92)" style="fill:#27405c"/><path d="M307.06,341.71h-1.88v-3.26h1.88V339h-1.19v.72H307v.56h-1.11v.84h1.19Z" transform="translate(-265.69 -262.92)" style="fill:#27405c"/><path d="M308.43,340.46v1.25h-.69v-3.26h.95a1.55,1.55,0,0,1,1,.25.86.86,0,0,1,.32.73.84.84,0,0,1-.16.51,1,1,0,0,1-.45.35c.49.73.81,1.21,1,1.42h-.77l-.77-1.25Zm0-.56h.22a.85.85,0,0,0,.48-.11.38.38,0,0,0,.16-.34.34.34,0,0,0-.16-.33.9.9,0,0,0-.49-.1h-.21Z" transform="translate(-265.69 -262.92)" style="fill:#27405c"/><path d="M311.76,339.8l.68-1.35h.75l-1.08,2v1.27h-.69v-1.24l-1.08-2h.75Z" transform="translate(-265.69 -262.92)" style="fill:#27405c"/><path d="M316.56,340.08a1.75,1.75,0,0,1-.41,1.24,1.72,1.72,0,0,1-2.3,0,1.8,1.8,0,0,1-.4-1.25,1.75,1.75,0,0,1,.41-1.24,1.51,1.51,0,0,1,1.15-.43,1.52,1.52,0,0,1,1.15.43A1.82,1.82,0,0,1,316.56,340.08Zm-2.38,0a1.42,1.42,0,0,0,.2.82.75.75,0,0,0,.62.28c.56,0,.83-.37.83-1.1s-.27-1.1-.82-1.1a.73.73,0,0,0-.62.27A1.37,1.37,0,0,0,314.18,340.08Z" transform="translate(-265.69 -262.92)" style="fill:#27405c"/><path d="M320.12,341.71h-.88l-1.41-2.46h0c0,.43,0,.74,0,.93v1.53h-.62v-3.26h.87l1.42,2.44h0c0-.42,0-.72,0-.89v-1.55h.62Z" transform="translate(-265.69 -262.92)" style="fill:#27405c"/><path d="M322.82,341.71h-1.88v-3.26h1.88V339h-1.19v.72h1.11v.56h-1.11v.84h1.19Z" transform="translate(-265.69 -262.92)" style="fill:#27405c"/><path d="M326.61,340.81a.85.85,0,0,1-.32.69,1.38,1.38,0,0,1-.88.26,2.12,2.12,0,0,1-.93-.2v-.64a3.73,3.73,0,0,0,.56.21,1.64,1.64,0,0,0,.42.06.58.58,0,0,0,.35-.09.3.3,0,0,0,.12-.26.34.34,0,0,0-.05-.17.56.56,0,0,0-.16-.14,3.43,3.43,0,0,0-.42-.22,2.63,2.63,0,0,1-.45-.27,1.13,1.13,0,0,1-.24-.3,1,1,0,0,1,.2-1.09,1.26,1.26,0,0,1,.81-.24,1.93,1.93,0,0,1,.49.06,2.79,2.79,0,0,1,.48.17l-.22.53-.43-.15a2.09,2.09,0,0,0-.34,0,.45.45,0,0,0-.3.09.3.3,0,0,0-.1.24.27.27,0,0,0,0,.16.4.4,0,0,0,.13.13,3.67,3.67,0,0,0,.44.23,1.7,1.7,0,0,1,.63.44A.87.87,0,0,1,326.61,340.81Z" transform="translate(-265.69 -262.92)" style="fill:#27405c"/><path d="M329.85,338.45v2.11a1.18,1.18,0,0,1-.16.63,1,1,0,0,1-.47.42,1.59,1.59,0,0,1-.72.15,1.37,1.37,0,0,1-1-.33,1.13,1.13,0,0,1-.35-.88v-2.1h.69v2a.79.79,0,0,0,.16.55.77.77,0,0,0,1,0,.85.85,0,0,0,.15-.56v-2Z" transform="translate(-265.69 -262.92)" style="fill:#27405c"/><path d="M332.57,340.81a.85.85,0,0,1-.32.69,1.36,1.36,0,0,1-.88.26,2,2,0,0,1-.92-.2v-.64a3.68,3.68,0,0,0,.55.21,1.76,1.76,0,0,0,.42.06.58.58,0,0,0,.35-.09.3.3,0,0,0,.12-.26.26.26,0,0,0-.05-.17.56.56,0,0,0-.16-.14,3.43,3.43,0,0,0-.42-.22,2.63,2.63,0,0,1-.45-.27,1.13,1.13,0,0,1-.24-.3.88.88,0,0,1-.09-.41.85.85,0,0,1,.3-.68,1.22,1.22,0,0,1,.81-.24,1.86,1.86,0,0,1,.48.06,2.3,2.3,0,0,1,.48.17l-.22.53a3.79,3.79,0,0,0-.43-.15,2,2,0,0,0-.33,0,.46.46,0,0,0-.31.09.3.3,0,0,0-.1.24.27.27,0,0,0,0,.16.44.44,0,0,0,.14.13,2.69,2.69,0,0,0,.43.23,1.7,1.7,0,0,1,.63.44A.87.87,0,0,1,332.57,340.81Z" transform="translate(-265.69 -262.92)" style="fill:#27405c"/><path d="M334.42,341.71h-.69V339h-.89v-.58h2.46V339h-.88Z" transform="translate(-265.69 -262.92)" style="fill:#27405c"/><path d="M337.8,341.71l-.24-.77h-1.18l-.24.77h-.75l1.15-3.27h.85l1.15,3.27Zm-.4-1.35-.37-1.2A1.89,1.89,0,0,1,337,339q-.08.29-.42,1.41Z" transform="translate(-265.69 -262.92)" style="fill:#27405c"/><path d="M339,341.71v-3.26h.69v3.26Z" transform="translate(-265.69 -262.92)" style="fill:#27405c"/><path d="M343.35,341.71h-.87l-1.42-2.46h0c0,.43,0,.74,0,.93v1.53h-.62v-3.26h.87l1.42,2.44h0c0-.42,0-.72,0-.89v-1.55h.62Z" transform="translate(-265.69 -262.92)" style="fill:#27405c"/><path d="M346.17,341.71l-.24-.77h-1.18l-.24.77h-.75l1.16-3.27h.84l1.15,3.27Zm-.4-1.35-.37-1.2a1.89,1.89,0,0,1-.06-.21q-.07.29-.42,1.41Z" transform="translate(-265.69 -262.92)" style="fill:#27405c"/><path d="M347.32,338.45h1a1.92,1.92,0,0,1,1,.2.69.69,0,0,1,.32.63.83.83,0,0,1-.14.48.53.53,0,0,1-.36.22v0a.77.77,0,0,1,.44.26.88.88,0,0,1,.14.51.83.83,0,0,1-.32.69,1.39,1.39,0,0,1-.88.25h-1.22Zm.69,1.29h.41a.8.8,0,0,0,.4-.08.32.32,0,0,0,.13-.29.3.3,0,0,0-.14-.27.91.91,0,0,0-.43-.08H348Zm0,.55v.85h.45a.69.69,0,0,0,.43-.11.39.39,0,0,0,.13-.33c0-.27-.19-.41-.58-.41Z" transform="translate(-265.69 -262.92)" style="fill:#27405c"/><path d="M350.39,341.71v-3.26h.69v2.69h1.32v.57Z" transform="translate(-265.69 -262.92)" style="fill:#27405c"/><path d="M354.85,341.71H353v-3.26h1.88V339h-1.19v.72h1.1v.56h-1.1v.84h1.19Z" transform="translate(-265.69 -262.92)" style="fill:#27405c"/><path d="M358.09,341.71l-.78-2.55h0c0,.52,0,.86,0,1v1.51h-.62v-3.26h.94l.77,2.5h0l.81-2.5h.94v3.26h-.64v-1.79c0-.1,0-.35,0-.76h0l-.84,2.55Z" transform="translate(-265.69 -262.92)" style="fill:#27405c"/><path d="M363,341.71l-.24-.77h-1.19l-.23.77h-.75l1.15-3.27h.85l1.15,3.27Zm-.4-1.35-.37-1.2a1.89,1.89,0,0,1-.06-.21q-.07.29-.42,1.41Z" transform="translate(-265.69 -262.92)" style="fill:#27405c"/><path d="M366.78,341.71H366l-.85-1.37-.3.21v1.16h-.69v-3.26h.69v1.49l.28-.38.88-1.11h.77l-1.14,1.45Z" transform="translate(-265.69 -262.92)" style="fill:#27405c"/><path d="M369.07,341.71h-1.88v-3.26h1.88V339h-1.19v.72H369v.56h-1.11v.84h1.19Z" transform="translate(-265.69 -262.92)" style="fill:#27405c"/><path d="M372.32,341.71l-.79-2.55h0c0,.52,0,.86,0,1v1.51h-.61v-3.26h.94l.77,2.5h0l.82-2.5h.94v3.26h-.64v-1.79c0-.1,0-.35,0-.76h0l-.84,2.55Z" transform="translate(-265.69 -262.92)" style="fill:#27405c"/><path d="M378.2,340.08a1.79,1.79,0,0,1-.4,1.24,1.51,1.51,0,0,1-1.15.44,1.48,1.48,0,0,1-1.15-.44,2.1,2.1,0,0,1,0-2.49,1.51,1.51,0,0,1,1.15-.43,1.52,1.52,0,0,1,1.15.43A1.82,1.82,0,0,1,378.2,340.08Zm-2.38,0a1.34,1.34,0,0,0,.21.82.72.72,0,0,0,.62.28c.55,0,.82-.37.82-1.1s-.27-1.1-.82-1.1a.74.74,0,0,0-.62.27A1.37,1.37,0,0,0,375.82,340.08Z" transform="translate(-265.69 -262.92)" style="fill:#27405c"/><path d="M381.76,341.71h-.88l-1.41-2.46h0c0,.43,0,.74,0,.93v1.53h-.62v-3.26h.87l1.42,2.44h0c0-.42,0-.72,0-.89v-1.55h.62Z" transform="translate(-265.69 -262.92)" style="fill:#27405c"/><path d="M384.46,341.71h-1.88v-3.26h1.88V339h-1.19v.72h1.11v.56h-1.11v.84h1.19Z" transform="translate(-265.69 -262.92)" style="fill:#27405c"/><path d="M386.15,339.8l.68-1.35h.75l-1.08,2v1.27h-.69v-1.24l-1.08-2h.75Z" transform="translate(-265.69 -262.92)" style="fill:#27405c"/><path d="M327.21,294.55l2.21,2.13a1.6,1.6,0,0,1,.48,1.13,1.57,1.57,0,0,1-.45,1.14,1.65,1.65,0,0,1-.72.43l-.2.05c0,.53,0,1.34,0,1.55v.3l.3,0a3.38,3.38,0,0,0,1.92-1,3.44,3.44,0,0,0-.08-4.87l-2.2-2.13a1,1,0,0,0-.66-.26.9.9,0,0,0-.65.28A.93.93,0,0,0,327.21,294.55Z" transform="translate(-265.69 -262.92)" style="fill:#f89838"/><path d="M323.7,298.18l2.21,2.13a3.31,3.31,0,0,0,1.53.85l.33.09,0-1.91-.14-.07a1.49,1.49,0,0,1-.41-.28l-2.2-2.14a1,1,0,0,0-.66-.26h0a1,1,0,0,0-.65.28A.94.94,0,0,0,323.7,298.18Z" transform="translate(-265.69 -262.92)" style="fill:#f89838"/><path d="M327.15,294.48l.06.07,2.21,2.13a1.6,1.6,0,0,1,.48,1.13,1.57,1.57,0,0,1-.45,1.14l-.07.07a1.67,1.67,0,0,1-.65.36l-.2.05c0,.34,0,.77,0,.88v.32l.31-.07a2.71,2.71,0,0,0,1.44-.79,2.79,2.79,0,0,0-.06-3.94l-2.83-2.74a.57.57,0,0,0-.13.08l0,0h0l-.06.06A.92.92,0,0,0,327.15,294.48Z" transform="translate(-265.69 -262.92)" style="fill:#f89838;opacity:0.30000000000000004;mix-blend-mode:multiply"/><path d="M324.91,296.79l-.08-.06a1,1,0,0,0-.5-.14h0a1,1,0,0,0-.65.28h0a.8.8,0,0,0-.15.21l2.83,2.75a2.68,2.68,0,0,0,1.05.63l.35.12,0-1.25-.14-.07a1.49,1.49,0,0,1-.41-.28l-2.2-2.14-.07-.06Z" transform="translate(-265.69 -262.92)" style="fill:#f89838;opacity:0.30000000000000004;mix-blend-mode:multiply"/><path d="M328.56,292.41a1.69,1.69,0,0,1,.41.29l2.2,2.13a1,1,0,0,0,.66.26,1,1,0,0,0,.64-.28.92.92,0,0,0,0-1.31l-2.2-2.13a3.42,3.42,0,0,0-1.53-.85l-.34-.09,0,1.91Z" transform="translate(-265.69 -262.92)" style="fill:#f89838"/><path d="M325.46,296.32l2.2,2.13a.9.9,0,0,0,.66.26.88.88,0,0,0,.64-.28.91.91,0,0,0,0-1.3l-2.2-2.13a1.61,1.61,0,0,1-.49-1.13,1.65,1.65,0,0,1,.45-1.14,1.69,1.69,0,0,1,.73-.43l.2-.05,0-1.85-.3.05a3.44,3.44,0,0,0-1.84,5.87Z" transform="translate(-265.69 -262.92)" style="fill:#f89838"/><path d="M328.56,292.41a1.69,1.69,0,0,1,.41.29l2.2,2.13a1,1,0,0,0,.66.26H332l0,0h0l0,0h0l0,0,0,0,0,0,0,0,0,0,0,0,0,0a.82.82,0,0,0,.16-.22l-2.84-2.75a2.72,2.72,0,0,0-1-.63l-.36-.12,0,1.25Z" transform="translate(-265.69 -262.92)" style="fill:#f89838;opacity:0.30000000000000004;mix-blend-mode:multiply"/><path d="M326.25,293.87a1.65,1.65,0,0,1,.45-1.14,1.69,1.69,0,0,1,.73-.43l.2-.05,0-1.2-.31.07a2.74,2.74,0,0,0-1.45.79,2.78,2.78,0,0,0,.07,3.94l2.83,2.74a.65.65,0,0,0,.21-.16l.06-.06h0l0-.05,0,0s0,0,0-.05,0,0,0,0l0,0,0-.05v0s0,0,0-.06v0a.64.64,0,0,1,0-.07v0s0,0,0-.07v-.17s0-.05,0-.07v0a.85.85,0,0,0-.26-.47l-2.2-2.13A1.61,1.61,0,0,1,326.25,293.87Z" transform="translate(-265.69 -262.92)" style="fill:#f89838;opacity:0.30000000000000004;mix-blend-mode:multiply"/><path d="M354.06,308.09a4.58,4.58,0,0,0-6.27,1.59,3.38,3.38,0,0,0-.24.51l-17.33-.26,1.21-2.92H338l-.67,1.57h3.52l7.21-12.6-14.86-25.54a4.56,4.56,0,1,0-3.48,1.64,3.55,3.55,0,0,0,.56-.06l9,15.6-3.5.4-3.3-5.81,1.71-.19L332.43,279l-14.52,0-14.86,25.53a4.56,4.56,0,1,0,3.15,2.22,4.84,4.84,0,0,0-.33-.46L315,290.67l1.9,2.58-3.38,5.67-1-1.39-1.8,3,7.14,12.65,29.54.3a4.57,4.57,0,1,0,6.65-5.42Zm-38.77-5.94,8.47-14.22,0-.06,1.77-3.12H322l-3.39,5.69-1.91-2.6,3.37-5.73,8.74,0L337,296.62l1.81,3.06,1.78-3.11-3.23-5.69,3.52-.39,3.33,5.79-4.35,7.58H319.64l1.87,3.15h6.64l-1.2,2.87-7.38-.11Z" transform="translate(-265.69 -262.92)" style="fill:#27405c"/></g></g></svg>