<svg 
 xmlns="http://www.w3.org/2000/svg"
 xmlns:xlink="http://www.w3.org/1999/xlink"
 width="0.75in" height="0.833in">
<path fill-rule="evenodd"  fill="rgb(36, 64, 92)"
 d="M51.934,43.878 L39.040,56.694 C38.752,56.980 38.396,57.186 38.005,57.294 L28.505,59.914 C28.298,59.972 28.087,59.999 27.877,59.999 C27.252,59.999 26.641,59.751 26.192,59.292 C25.593,58.681 25.375,57.792 25.625,56.975 L28.439,47.749 C28.552,47.380 28.754,47.044 29.029,46.771 L41.950,33.932 C44.702,31.192 49.181,31.192 51.934,33.934 C54.687,36.676 54.687,41.136 51.934,43.878 ZM41.490,41.011 L32.771,49.674 L31.373,54.260 L36.152,52.941 L44.819,44.327 L41.490,41.011 ZM48.606,37.248 C47.688,36.335 46.195,36.335 45.277,37.248 L44.823,37.700 L48.151,41.015 L48.607,40.562 C49.523,39.649 49.523,38.163 48.606,37.248 ZM26.478,37.500 L11.755,37.500 C10.455,37.500 9.401,36.451 9.401,35.156 C9.401,33.861 10.455,32.812 11.755,32.812 L26.478,32.812 C27.778,32.812 28.832,33.861 28.832,35.156 C28.832,36.451 27.778,37.500 26.478,37.500 ZM35.997,18.750 L11.755,18.750 C10.455,18.750 9.401,17.700 9.401,16.406 C9.401,15.111 10.455,14.062 11.755,14.062 L35.997,14.062 C37.297,14.062 38.351,15.111 38.351,16.406 C38.351,17.700 37.297,18.750 35.997,18.750 ZM35.997,28.124 L11.755,28.124 C10.455,28.124 9.401,27.075 9.401,25.781 C9.401,24.486 10.455,23.437 11.755,23.437 L35.997,23.437 C37.297,23.437 38.351,24.486 38.351,25.781 C38.351,27.075 37.297,28.124 35.997,28.124 ZM45.412,26.133 C44.112,26.133 43.058,25.083 43.058,23.789 L43.058,9.375 C43.058,6.790 40.946,4.687 38.351,4.687 L9.414,4.687 C6.819,4.687 4.707,6.790 4.707,9.375 L4.707,50.625 C4.707,53.210 6.819,55.312 9.414,55.312 L17.286,55.312 C18.586,55.312 19.640,56.361 19.640,57.656 C19.640,58.950 18.586,59.999 17.286,59.999 L9.414,59.999 C4.223,59.999 0.000,55.794 0.000,50.625 L0.000,9.375 C0.000,4.205 4.223,-0.000 9.414,-0.000 L38.351,-0.000 C43.542,-0.000 47.765,4.205 47.765,9.375 L47.765,23.789 C47.765,25.083 46.712,26.133 45.412,26.133 Z"/>
</svg>