<svg 
 xmlns="http://www.w3.org/2000/svg"
 xmlns:xlink="http://www.w3.org/1999/xlink"
 width="0.875in" height="0.875in">
<path fill-rule="evenodd"  fill="rgb(36, 64, 92)"
 d="M62.152,16.779 C61.605,17.326 60.878,17.627 60.104,17.627 C59.650,17.627 59.211,17.522 58.816,17.325 L52.746,23.395 C52.013,24.128 51.038,24.532 50.001,24.532 L47.218,24.532 L47.218,26.631 L51.227,26.631 C51.737,26.631 52.150,27.044 52.150,27.554 C52.150,28.064 51.737,28.477 51.227,28.477 L47.218,28.477 L47.218,30.577 L62.077,30.577 C62.587,30.577 63.000,30.990 63.000,31.500 C63.000,32.010 62.587,32.422 62.077,32.422 L47.218,32.422 L47.218,34.522 L51.227,34.522 C51.737,34.522 52.150,34.935 52.150,35.445 C52.150,35.955 51.737,36.368 51.227,36.368 L47.218,36.368 L47.218,38.467 L55.387,38.467 C55.774,37.322 56.857,36.495 58.131,36.495 C59.728,36.495 61.027,37.794 61.027,39.390 C61.027,40.987 59.728,42.286 58.131,42.286 C56.857,42.286 55.774,41.459 55.387,40.313 L47.218,40.313 L47.218,42.349 C47.218,42.760 47.166,43.170 47.065,43.565 C46.958,43.982 46.583,44.258 46.172,44.258 C46.095,44.258 46.018,44.249 45.941,44.229 C45.448,44.102 45.150,43.599 45.277,43.106 C45.340,42.860 45.372,42.606 45.372,42.349 L45.372,20.650 C45.372,18.983 44.016,17.627 42.350,17.627 L20.650,17.627 C20.393,17.627 20.139,17.659 19.893,17.722 C19.400,17.849 18.897,17.552 18.770,17.059 C18.643,16.565 18.940,16.062 19.433,15.935 C19.829,15.833 20.238,15.781 20.650,15.781 L22.686,15.781 L22.686,12.998 C22.686,12.454 22.475,11.943 22.090,11.558 L16.018,5.487 C15.614,5.687 15.173,5.789 14.732,5.789 C13.990,5.789 13.249,5.507 12.684,4.943 C11.556,3.814 11.556,1.977 12.684,0.848 C13.813,-0.281 15.650,-0.281 16.779,0.848 C17.680,1.748 17.860,3.099 17.323,4.182 L23.395,10.253 C24.128,10.986 24.532,11.961 24.532,12.998 L24.532,15.781 L26.632,15.781 L26.632,11.772 C26.632,11.263 27.045,10.849 27.554,10.849 C28.064,10.849 28.477,11.263 28.477,11.772 L28.477,15.781 L30.577,15.781 L30.577,0.923 C30.577,0.413 30.990,-0.000 31.500,-0.000 C32.010,-0.000 32.423,0.413 32.423,0.923 L32.423,15.781 L34.522,15.781 L34.522,11.772 C34.522,11.263 34.936,10.849 35.445,10.849 C35.955,10.849 36.368,11.263 36.368,11.772 L36.368,15.781 L38.468,15.781 L38.468,7.612 C37.322,7.225 36.495,6.142 36.495,4.868 C36.495,3.271 37.794,1.972 39.391,1.972 C40.987,1.972 42.286,3.271 42.286,4.868 C42.286,6.142 41.459,7.225 40.313,7.612 L40.313,15.781 L42.350,15.781 C45.034,15.781 47.218,17.965 47.218,20.650 L47.218,22.686 L50.001,22.686 C50.545,22.686 51.057,22.474 51.441,22.089 L57.511,16.020 C57.313,15.625 57.209,15.186 57.209,14.731 C57.209,13.958 57.510,13.231 58.057,12.684 C58.604,12.137 59.331,11.836 60.104,11.836 C60.878,11.836 61.605,12.137 62.152,12.684 C62.699,13.231 63.000,13.958 63.000,14.732 C63.000,15.505 62.699,16.232 62.152,16.779 ZM58.131,40.440 C58.710,40.440 59.181,39.970 59.181,39.391 C59.181,38.812 58.710,38.341 58.131,38.341 C57.553,38.341 57.082,38.812 57.082,39.391 C57.082,39.969 57.553,40.440 58.131,40.440 ZM15.474,2.153 C15.269,1.948 15.001,1.846 14.732,1.846 C14.463,1.846 14.194,1.948 13.989,2.153 C13.580,2.562 13.580,3.228 13.989,3.638 C14.399,4.047 15.065,4.047 15.474,3.638 C15.884,3.228 15.884,2.562 15.474,2.153 ZM40.441,4.868 C40.441,4.289 39.970,3.818 39.391,3.818 C38.812,3.818 38.341,4.289 38.341,4.868 C38.341,5.447 38.812,5.918 39.391,5.918 C39.969,5.918 40.441,5.447 40.441,4.868 ZM60.846,13.989 C60.648,13.791 60.385,13.682 60.104,13.682 C59.824,13.682 59.560,13.791 59.362,13.989 C59.163,14.188 59.054,14.451 59.054,14.732 C59.054,15.012 59.163,15.276 59.362,15.474 C59.560,15.672 59.824,15.781 60.104,15.781 C60.385,15.781 60.648,15.672 60.846,15.474 C61.045,15.276 61.154,15.012 61.154,14.732 C61.154,14.451 61.045,14.188 60.846,13.989 ZM39.072,38.644 C38.936,40.673 37.085,42.286 34.829,42.286 C33.481,42.286 32.279,41.710 31.500,40.815 C30.720,41.710 29.518,42.286 28.171,42.286 C25.827,42.286 23.919,40.545 23.919,38.404 C23.919,38.403 23.919,38.403 23.919,38.402 C22.538,37.493 21.700,36.028 21.700,34.459 C21.700,33.427 22.055,32.458 22.672,31.660 C22.041,30.908 21.700,29.998 21.700,29.034 C21.700,27.060 23.144,25.388 25.120,24.845 C25.061,24.604 25.029,24.356 25.029,24.102 C25.029,22.234 26.687,20.713 28.726,20.713 C29.830,20.713 30.822,21.160 31.500,21.866 C32.178,21.160 33.170,20.713 34.274,20.713 C36.312,20.713 37.971,22.234 37.971,24.102 C37.971,24.356 37.938,24.604 37.880,24.845 C39.856,25.388 41.300,27.060 41.300,29.034 C41.300,30.140 40.828,31.195 40.017,31.993 C40.828,32.791 41.300,33.846 41.300,34.952 C41.300,36.456 40.442,37.849 39.072,38.644 ZM38.034,31.177 C38.923,30.707 39.454,29.906 39.454,29.034 C39.454,27.645 38.138,26.515 36.516,26.505 C36.508,26.505 36.500,26.506 36.491,26.506 C36.482,26.506 36.474,26.505 36.465,26.505 C36.017,26.509 35.588,26.595 35.189,26.763 C34.719,26.961 34.178,26.741 33.980,26.271 C33.782,25.802 34.002,25.260 34.472,25.062 C34.954,24.859 35.462,24.732 35.986,24.683 C36.065,24.523 36.125,24.329 36.125,24.102 C36.125,23.251 35.294,22.559 34.274,22.559 C33.253,22.559 32.422,23.251 32.422,24.102 C32.422,24.612 32.009,25.025 31.500,25.025 C30.990,25.025 30.577,24.612 30.577,24.102 C30.577,23.251 29.746,22.559 28.726,22.559 C27.705,22.559 26.874,23.251 26.874,24.102 C26.874,24.504 27.058,24.805 27.212,24.987 C27.212,24.987 27.213,24.988 27.213,24.989 C27.229,25.007 27.244,25.027 27.258,25.047 C27.262,25.053 27.267,25.058 27.270,25.064 C27.278,25.075 27.284,25.086 27.291,25.098 C27.529,25.480 27.458,25.988 27.104,26.288 C26.931,26.434 26.719,26.506 26.508,26.506 C26.500,26.506 26.492,26.505 26.484,26.505 C24.861,26.515 23.545,27.645 23.545,29.034 C23.545,29.536 23.721,30.017 24.049,30.428 C24.554,30.117 25.123,29.881 25.742,29.739 C26.239,29.625 26.734,29.935 26.848,30.432 C26.962,30.929 26.651,31.424 26.155,31.537 C24.618,31.890 23.545,33.091 23.545,34.459 C23.545,35.217 23.885,35.942 24.468,36.493 C24.626,36.238 24.817,35.997 25.038,35.778 C25.399,35.419 25.983,35.420 26.343,35.782 C26.702,36.143 26.700,36.728 26.339,37.087 C25.968,37.455 25.764,37.923 25.764,38.404 C25.764,39.527 26.844,40.440 28.171,40.440 C29.497,40.440 30.577,39.527 30.577,38.404 L30.577,36.431 C30.577,35.585 29.945,34.817 29.004,34.521 C28.518,34.368 28.247,33.850 28.400,33.364 C28.553,32.878 29.071,32.607 29.557,32.760 C29.925,32.876 30.266,33.037 30.577,33.232 L30.577,28.109 C30.577,27.600 30.990,27.186 31.499,27.186 C32.009,27.186 32.422,27.600 32.422,28.109 L32.422,29.288 C33.107,28.857 33.936,28.604 34.828,28.604 C35.338,28.604 35.751,29.017 35.751,29.527 C35.751,30.037 35.338,30.450 34.828,30.450 C33.502,30.450 32.422,31.363 32.422,32.486 L32.422,38.404 C32.422,39.527 33.502,40.440 34.828,40.440 C36.155,40.440 37.235,39.527 37.235,38.404 C37.235,37.557 36.602,36.790 35.661,36.494 C35.175,36.341 34.905,35.823 35.058,35.337 C35.211,34.851 35.729,34.580 36.215,34.733 C37.298,35.074 38.156,35.789 38.641,36.687 C39.151,36.223 39.454,35.602 39.454,34.952 C39.454,34.079 38.923,33.278 38.034,32.809 C37.731,32.649 37.541,32.335 37.541,31.993 C37.541,31.650 37.731,31.336 38.034,31.177 ZM15.782,20.650 C15.782,20.238 15.833,19.829 15.935,19.433 C16.062,18.939 16.565,18.642 17.059,18.770 C17.553,18.897 17.850,19.400 17.723,19.894 C17.659,20.139 17.627,20.393 17.627,20.650 L17.627,42.349 C17.627,44.016 18.983,45.372 20.650,45.372 L42.350,45.372 C42.606,45.372 42.861,45.340 43.106,45.277 C43.600,45.150 44.103,45.447 44.230,45.941 C44.357,46.434 44.060,46.937 43.566,47.064 C43.170,47.166 42.761,47.218 42.350,47.218 L40.313,47.218 L40.313,50.001 C40.313,50.545 40.525,51.056 40.910,51.441 L46.981,57.512 C48.064,56.976 49.415,57.156 50.315,58.057 C51.444,59.185 51.444,61.023 50.315,62.152 C49.751,62.716 49.009,62.998 48.268,62.998 C47.526,62.998 46.785,62.716 46.220,62.152 C45.320,61.251 45.140,59.901 45.676,58.818 L39.605,52.746 C38.872,52.013 38.468,51.038 38.468,50.001 L38.468,47.218 L36.368,47.218 L36.368,51.227 C36.368,51.737 35.955,52.150 35.445,52.150 C34.936,52.150 34.522,51.737 34.522,51.227 L34.522,47.218 L32.423,47.218 L32.423,62.077 C32.423,62.587 32.010,63.000 31.500,63.000 C30.990,63.000 30.577,62.587 30.577,62.077 L30.577,47.218 L28.477,47.218 L28.477,51.227 C28.477,51.736 28.064,52.150 27.555,52.150 C27.045,52.150 26.632,51.736 26.632,51.227 L26.632,47.218 L24.532,47.218 L24.532,55.387 C25.677,55.774 26.505,56.857 26.505,58.131 C26.505,59.728 25.206,61.027 23.609,61.027 C22.013,61.027 20.714,59.728 20.714,58.131 C20.714,56.857 21.541,55.774 22.686,55.387 L22.686,47.218 L20.650,47.218 C17.966,47.218 15.782,45.034 15.782,42.349 L15.782,40.313 L12.999,40.313 C12.455,40.313 11.943,40.525 11.559,40.910 L5.489,46.979 C5.686,47.375 5.791,47.813 5.791,48.268 C5.791,49.041 5.490,49.768 4.943,50.315 C4.396,50.862 3.669,51.163 2.896,51.163 C2.122,51.163 1.395,50.862 0.848,50.315 C0.301,49.768 -0.000,49.041 -0.000,48.268 C-0.000,47.495 0.301,46.767 0.848,46.220 C1.395,45.674 2.122,45.372 2.895,45.372 C3.350,45.372 3.789,45.477 4.184,45.674 L10.253,39.604 C10.987,38.871 11.961,38.468 12.998,38.468 L15.782,38.468 L15.782,36.368 L11.773,36.368 C11.263,36.368 10.850,35.955 10.850,35.445 C10.850,34.935 11.263,34.522 11.773,34.522 L15.782,34.522 L15.782,32.422 L0.923,32.422 C0.413,32.422 -0.000,32.010 -0.000,31.500 C-0.000,30.990 0.413,30.577 0.923,30.577 L15.782,30.577 L15.782,28.477 L11.773,28.477 C11.263,28.477 10.850,28.064 10.850,27.554 C10.850,27.044 11.263,26.631 11.773,26.631 L15.782,26.631 L15.782,24.532 L7.612,24.532 C7.226,25.677 6.142,26.504 4.868,26.504 C3.272,26.504 1.973,25.206 1.973,23.609 C1.973,22.012 3.271,20.713 4.868,20.713 C6.142,20.713 7.226,21.540 7.612,22.686 L15.782,22.686 L15.782,20.650 ZM47.526,60.847 C47.935,61.256 48.601,61.256 49.010,60.847 C49.420,60.437 49.420,59.771 49.010,59.362 C48.806,59.157 48.537,59.055 48.268,59.055 C47.999,59.055 47.730,59.157 47.526,59.362 C47.116,59.771 47.116,60.437 47.526,60.847 ZM22.559,58.131 C22.559,58.710 23.030,59.181 23.609,59.181 C24.188,59.181 24.659,58.710 24.659,58.131 C24.659,57.553 24.188,57.082 23.609,57.082 C23.030,57.082 22.559,57.553 22.559,58.131 ZM3.638,47.525 C3.439,47.327 3.176,47.218 2.895,47.218 C2.615,47.218 2.351,47.327 2.153,47.525 C1.955,47.724 1.846,47.987 1.846,48.268 C1.846,48.548 1.955,48.812 2.153,49.010 C2.351,49.209 2.615,49.318 2.895,49.318 C3.176,49.318 3.439,49.209 3.638,49.010 C3.836,48.812 3.945,48.548 3.945,48.268 C3.945,47.987 3.836,47.724 3.638,47.525 ZM4.868,22.559 C4.289,22.559 3.818,23.030 3.818,23.609 C3.818,24.187 4.289,24.659 4.868,24.659 C5.447,24.659 5.918,24.188 5.918,23.609 C5.918,23.030 5.447,22.559 4.868,22.559 Z"/>
</svg>