<svg 
 xmlns="http://www.w3.org/2000/svg"
 xmlns:xlink="http://www.w3.org/1999/xlink"
 width="0.417in" height="0.417in">
<path fill-rule="evenodd"  fill="rgb(246, 145, 59)"
 d="M28.000,9.999 C26.897,9.999 26.000,9.102 26.000,7.999 C26.000,7.755 26.050,7.524 26.131,7.307 L22.971,5.782 C22.894,7.281 22.207,8.609 21.166,9.554 L23.768,13.023 C23.846,13.020 23.920,13.000 24.000,13.000 C27.033,13.000 29.500,15.467 29.500,18.500 C29.500,20.505 28.410,22.245 26.802,23.206 C26.783,23.222 26.772,23.245 26.750,23.258 C26.594,23.348 26.430,23.423 26.267,23.497 C26.211,23.522 26.161,23.554 26.105,23.577 C25.822,23.695 25.530,23.779 25.233,23.848 C25.145,23.869 25.057,23.886 24.967,23.902 C24.648,23.960 24.326,24.000 24.000,24.000 C23.674,24.000 23.352,23.960 23.033,23.902 C22.943,23.886 22.855,23.869 22.767,23.848 C22.470,23.779 22.178,23.695 21.895,23.577 C21.839,23.554 21.788,23.522 21.733,23.497 C21.570,23.423 21.406,23.348 21.249,23.258 C21.228,23.245 21.217,23.222 21.198,23.206 C20.381,22.718 19.701,22.028 19.226,21.205 L17.184,22.736 C17.374,23.293 17.500,23.879 17.500,24.500 C17.500,24.560 17.484,24.617 17.482,24.677 L21.215,26.479 C21.564,26.185 22.009,26.000 22.500,26.000 C23.603,26.000 24.500,26.897 24.500,27.999 C24.500,29.102 23.603,30.000 22.500,30.000 C21.397,30.000 20.500,29.102 20.500,27.999 C20.500,27.755 20.550,27.524 20.631,27.307 L17.351,25.724 C17.009,27.219 16.055,28.480 14.771,29.237 C14.763,29.243 14.759,29.253 14.750,29.258 C14.739,29.265 14.726,29.269 14.715,29.276 C14.668,29.303 14.617,29.322 14.569,29.348 C14.374,29.451 14.175,29.545 13.970,29.624 C13.874,29.661 13.776,29.692 13.677,29.723 C13.500,29.781 13.320,29.829 13.138,29.868 C13.042,29.888 12.947,29.910 12.850,29.925 C12.569,29.970 12.285,30.000 12.000,30.000 C11.674,30.000 11.351,29.959 11.032,29.902 C10.943,29.886 10.855,29.869 10.768,29.849 C10.471,29.780 10.177,29.695 9.894,29.577 C9.840,29.554 9.792,29.524 9.739,29.500 C9.573,29.425 9.408,29.350 9.249,29.258 C9.227,29.245 9.217,29.221 9.197,29.206 C7.726,28.326 6.699,26.790 6.534,25.000 L3.929,25.000 C3.705,25.860 2.929,26.499 2.000,26.499 C0.897,26.499 -0.000,25.602 -0.000,24.500 C-0.000,23.396 0.897,22.499 2.000,22.499 C2.929,22.499 3.706,23.139 3.929,24.000 L6.551,24.000 C6.808,21.204 9.139,18.999 12.000,18.999 C14.048,18.999 15.817,20.138 16.764,21.803 L18.808,20.269 C18.616,19.713 18.500,19.122 18.500,18.500 C18.500,15.938 20.268,13.798 22.642,13.189 L20.370,10.160 C20.346,10.176 20.324,10.194 20.299,10.209 C20.281,10.224 20.271,10.246 20.251,10.258 C20.037,10.381 19.817,10.489 19.591,10.582 C19.556,10.597 19.519,10.605 19.484,10.618 C19.231,10.717 18.970,10.794 18.705,10.854 C18.617,10.874 18.529,10.892 18.440,10.907 C18.129,10.962 17.816,10.999 17.500,10.999 C17.174,10.999 16.852,10.959 16.533,10.902 C16.443,10.886 16.355,10.869 16.267,10.848 C15.970,10.779 15.678,10.695 15.396,10.577 C15.339,10.554 15.288,10.522 15.232,10.497 C15.069,10.422 14.906,10.348 14.749,10.258 C14.728,10.245 14.717,10.221 14.698,10.206 C13.365,9.409 12.398,8.072 12.103,6.497 L9.724,8.533 C10.445,9.418 10.914,10.518 10.973,11.734 L13.783,13.924 C14.121,13.662 14.540,13.499 15.000,13.499 C16.103,13.499 17.000,14.397 17.000,15.499 C17.000,16.602 16.103,17.500 15.000,17.500 C13.897,17.500 13.000,16.602 13.000,15.499 C13.000,15.219 13.059,14.952 13.164,14.710 L10.904,12.949 C10.620,14.570 9.627,15.948 8.258,16.751 C8.255,16.753 8.253,16.756 8.250,16.758 C8.011,16.896 7.762,17.011 7.507,17.111 C7.420,17.146 7.330,17.172 7.240,17.202 C7.049,17.266 6.855,17.321 6.657,17.364 C6.563,17.384 6.471,17.405 6.375,17.420 C6.086,17.468 5.794,17.500 5.500,17.500 C5.174,17.500 4.852,17.460 4.532,17.402 C4.443,17.386 4.355,17.369 4.268,17.349 C3.971,17.280 3.677,17.195 3.395,17.077 C3.340,17.054 3.290,17.023 3.236,16.999 C3.071,16.924 2.907,16.849 2.749,16.758 C2.727,16.745 2.717,16.721 2.698,16.706 C1.090,15.745 -0.000,14.005 -0.000,12.000 C-0.000,9.138 2.205,6.807 5.000,6.550 L5.000,3.928 C4.140,3.705 3.500,2.929 3.500,1.999 C3.500,0.897 4.397,-0.000 5.500,-0.000 C6.603,-0.000 7.500,0.897 7.500,1.999 C7.500,2.928 6.860,3.705 6.000,3.928 L6.000,6.546 C7.148,6.655 8.191,7.108 9.023,7.817 L12.025,5.248 C12.160,2.334 14.554,-0.000 17.500,-0.000 C20.239,-0.000 22.499,2.019 22.913,4.644 L26.715,6.479 C27.064,6.184 27.509,6.000 28.000,6.000 C29.103,6.000 30.000,6.896 30.000,7.999 C30.000,9.103 29.103,9.999 28.000,9.999 ZM22.500,29.000 C23.051,29.000 23.500,28.551 23.500,27.999 C23.500,27.448 23.051,26.999 22.500,26.999 C21.948,26.999 21.500,27.448 21.500,27.999 C21.500,28.551 21.948,29.000 22.500,29.000 ZM2.000,23.499 C1.448,23.499 1.000,23.948 1.000,24.500 C1.000,25.051 1.448,25.499 2.000,25.499 C2.551,25.499 3.000,25.051 3.000,24.500 C3.000,23.948 2.551,23.499 2.000,23.499 ZM10.000,28.510 C10.032,28.525 10.061,28.545 10.093,28.560 C10.345,28.679 10.607,28.772 10.876,28.840 C10.917,28.851 10.956,28.869 10.998,28.878 C11.656,29.026 12.344,29.026 13.001,28.878 C13.044,28.868 13.083,28.851 13.125,28.840 C13.393,28.771 13.655,28.679 13.907,28.560 C13.939,28.545 13.968,28.525 14.000,28.510 L14.000,27.508 C14.000,27.228 13.753,26.999 13.450,26.999 L10.549,26.999 C10.246,26.999 10.000,27.228 10.000,27.508 L10.000,28.510 ZM12.000,19.999 C9.518,19.999 7.500,22.018 7.500,24.500 C7.500,25.824 8.086,27.005 9.000,27.829 L9.000,27.507 C9.000,26.676 9.695,26.000 10.549,26.000 L13.450,26.000 C14.305,26.000 15.000,26.676 15.000,27.508 L15.000,27.829 C15.914,27.005 16.500,25.824 16.500,24.500 C16.500,22.018 14.481,19.999 12.000,19.999 ZM22.000,22.509 C22.032,22.525 22.061,22.545 22.094,22.561 C22.344,22.678 22.605,22.770 22.871,22.839 C22.915,22.850 22.955,22.868 22.999,22.879 C23.656,23.026 24.344,23.026 25.000,22.879 C25.044,22.868 25.085,22.850 25.128,22.839 C25.395,22.770 25.656,22.678 25.906,22.560 C25.939,22.545 25.968,22.525 26.000,22.510 L26.000,21.507 C26.000,21.228 25.753,20.999 25.450,20.999 L22.549,20.999 C22.246,20.999 22.000,21.228 22.000,21.507 L22.000,22.509 ZM19.500,18.499 C19.500,19.824 20.086,21.005 21.000,21.829 L21.000,21.507 C21.000,20.676 21.695,19.999 22.549,19.999 L25.450,19.999 C26.305,19.999 27.000,20.676 27.000,21.507 L27.000,21.829 C27.914,21.005 28.500,19.824 28.500,18.499 C28.500,16.018 26.481,13.999 24.000,13.999 C21.518,13.999 19.500,16.018 19.500,18.499 ZM15.000,16.500 C15.551,16.500 16.000,16.051 16.000,15.499 C16.000,14.948 15.551,14.499 15.000,14.499 C14.448,14.499 14.000,14.948 14.000,15.499 C14.000,16.051 14.448,16.500 15.000,16.500 ZM3.500,16.009 C3.532,16.026 3.562,16.046 3.595,16.061 C3.844,16.178 4.103,16.270 4.368,16.338 C4.413,16.349 4.455,16.368 4.500,16.379 C5.157,16.526 5.843,16.526 6.500,16.379 C6.545,16.368 6.587,16.349 6.631,16.338 C6.896,16.270 7.155,16.178 7.405,16.061 C7.438,16.046 7.468,16.026 7.500,16.010 L7.500,15.008 C7.500,14.727 7.253,14.499 6.950,14.499 L4.049,14.499 C3.746,14.499 3.500,14.727 3.500,15.008 L3.500,16.009 ZM6.500,1.999 C6.500,1.448 6.051,0.999 5.500,0.999 C4.948,0.999 4.500,1.448 4.500,1.999 C4.500,2.551 4.949,3.000 5.500,3.000 C6.051,3.000 6.500,2.551 6.500,1.999 ZM5.500,7.499 C3.018,7.499 1.000,9.518 1.000,12.000 C1.000,13.324 1.586,14.505 2.500,15.329 L2.500,15.007 C2.500,14.176 3.195,13.499 4.049,13.499 L6.950,13.499 C7.805,13.499 8.500,14.176 8.500,15.008 L8.500,15.329 C9.414,14.505 10.000,13.324 10.000,12.000 C10.000,9.518 7.981,7.499 5.500,7.499 ZM15.500,9.510 C15.532,9.526 15.561,9.545 15.593,9.560 C15.845,9.679 16.107,9.772 16.375,9.840 C16.417,9.851 16.456,9.869 16.498,9.878 C17.156,10.026 17.844,10.026 18.501,9.878 C18.544,9.869 18.583,9.851 18.625,9.840 C18.893,9.772 19.155,9.679 19.407,9.560 C19.439,9.545 19.468,9.526 19.500,9.510 L19.500,8.507 C19.500,8.227 19.253,7.999 18.950,7.999 L16.049,7.999 C15.746,7.999 15.500,8.227 15.500,8.507 L15.500,9.510 ZM17.500,0.999 C15.019,0.999 13.000,3.018 13.000,5.500 C13.000,6.824 13.586,8.005 14.500,8.829 L14.500,8.507 C14.500,7.676 15.195,7.000 16.049,7.000 L18.950,7.000 C19.805,7.000 20.500,7.676 20.500,8.507 L20.500,8.829 C21.414,8.005 22.000,6.824 22.000,5.500 C22.000,3.018 19.981,0.999 17.500,0.999 ZM28.000,7.000 C27.448,7.000 27.000,7.448 27.000,7.999 C27.000,8.551 27.449,8.999 28.000,8.999 C28.551,8.999 29.000,8.551 29.000,7.999 C29.000,7.448 28.551,7.000 28.000,7.000 ZM17.500,6.000 C16.397,6.000 15.500,5.102 15.500,3.999 C15.500,2.897 16.397,1.999 17.500,1.999 C18.603,1.999 19.500,2.897 19.500,3.999 C19.500,5.102 18.603,6.000 17.500,6.000 ZM17.500,2.999 C16.948,2.999 16.500,3.448 16.500,3.999 C16.500,4.551 16.948,4.999 17.500,4.999 C18.051,4.999 18.500,4.551 18.500,3.999 C18.500,3.448 18.052,2.999 17.500,2.999 ZM5.500,12.499 C4.397,12.499 3.500,11.602 3.500,10.499 C3.500,9.397 4.397,8.500 5.500,8.500 C6.603,8.500 7.500,9.397 7.500,10.499 C7.500,11.602 6.603,12.499 5.500,12.499 ZM5.500,9.499 C4.948,9.499 4.500,9.948 4.500,10.499 C4.500,11.051 4.949,11.499 5.500,11.499 C6.051,11.499 6.500,11.051 6.500,10.499 C6.500,9.948 6.051,9.499 5.500,9.499 ZM26.000,16.999 C26.000,18.103 25.103,18.999 24.000,18.999 C22.897,18.999 22.000,18.103 22.000,16.999 C22.000,15.896 22.897,14.999 24.000,14.999 C25.103,14.999 26.000,15.896 26.000,16.999 ZM23.000,16.999 C23.000,17.551 23.448,17.999 24.000,17.999 C24.551,17.999 25.000,17.551 25.000,16.999 C25.000,16.448 24.551,15.999 24.000,15.999 C23.448,15.999 23.000,16.448 23.000,16.999 ZM12.000,25.000 C10.897,25.000 10.000,24.103 10.000,23.000 C10.000,21.896 10.897,20.999 12.000,20.999 C13.103,20.999 14.000,21.896 14.000,23.000 C14.000,24.103 13.103,25.000 12.000,25.000 ZM12.000,22.000 C11.448,22.000 11.000,22.448 11.000,23.000 C11.000,23.551 11.448,24.000 12.000,24.000 C12.551,24.000 13.000,23.551 13.000,23.000 C13.000,22.448 12.551,22.000 12.000,22.000 Z"/>
</svg>