<svg 
 xmlns="http://www.w3.org/2000/svg"
 xmlns:xlink="http://www.w3.org/1999/xlink"
 width="0.389in" height="0.389in">
<path fill-rule="evenodd"  fill="rgb(246, 145, 59)"
 d="M23.900,23.899 C21.255,26.543 17.739,28.000 14.000,28.000 C10.260,28.000 6.745,26.543 4.100,23.899 C1.456,21.255 -0.000,17.739 -0.000,13.999 C-0.000,10.260 1.456,6.744 4.100,4.100 C6.745,1.456 10.260,-0.001 14.000,-0.001 C17.739,-0.001 21.255,1.456 23.900,4.100 C26.544,6.744 28.000,10.260 28.000,13.999 C28.000,17.739 26.544,21.255 23.900,23.899 ZM14.000,1.640 C7.185,1.640 1.641,7.184 1.641,13.999 C1.641,20.815 7.185,26.359 14.000,26.359 C20.815,26.359 26.359,20.815 26.359,13.999 C26.359,7.184 20.815,1.640 14.000,1.640 ZM13.121,13.179 L14.879,13.179 C16.784,13.179 18.335,14.730 18.335,16.635 C18.335,18.541 16.784,20.091 14.879,20.091 L14.820,20.091 L14.820,21.907 C14.820,22.360 14.453,22.728 14.000,22.728 C13.547,22.728 13.180,22.360 13.180,21.907 L13.180,20.091 L11.364,20.091 C10.911,20.091 10.544,19.724 10.544,19.271 C10.544,18.818 10.911,18.451 11.364,18.451 L14.879,18.451 C15.880,18.451 16.694,17.637 16.694,16.635 C16.694,15.634 15.880,14.820 14.879,14.820 L13.121,14.820 C11.216,14.820 9.665,13.269 9.665,11.364 C9.665,9.458 11.216,7.907 13.121,7.907 L13.180,7.907 L13.180,6.091 C13.180,5.639 13.547,5.271 14.000,5.271 C14.453,5.271 14.820,5.639 14.820,6.091 L14.820,7.907 L16.636,7.907 C17.089,7.907 17.456,8.275 17.456,8.727 C17.456,9.181 17.089,9.548 16.636,9.548 L13.121,9.548 C12.120,9.548 11.306,10.363 11.306,11.364 C11.306,12.364 12.120,13.179 13.121,13.179 Z"/>
</svg>