<svg 
 xmlns="http://www.w3.org/2000/svg"
 xmlns:xlink="http://www.w3.org/1999/xlink"
 width="0.375in" height="0.472in">
<path fill-rule="evenodd"  fill="rgb(246, 145, 59)"
 d="M24.138,13.717 L21.814,0.493 L24.675,-0.000 L26.999,13.224 L24.138,13.717 ZM21.238,15.501 L13.577,4.420 L15.977,2.789 L23.619,13.888 L21.238,15.501 ZM19.280,18.365 L7.586,11.535 L9.065,9.069 L20.758,15.899 L19.280,18.365 ZM18.301,21.932 L5.186,18.460 L5.935,15.690 L19.049,19.162 L18.301,21.932 ZM17.897,25.765 L4.360,24.532 L4.629,21.686 L18.147,22.919 L17.897,25.765 ZM17.820,29.446 L4.245,29.465 L4.245,26.600 L17.820,26.581 L17.820,29.446 ZM20.143,20.016 L22.448,20.016 L22.448,33.316 L22.429,33.980 L22.429,34.000 L0.693,34.000 L0.021,33.980 L0.001,33.980 L0.001,20.016 L2.325,20.016 L2.325,31.741 L20.143,31.741 L20.143,20.016 Z"/>
</svg>