<svg 
 xmlns="http://www.w3.org/2000/svg"
 xmlns:xlink="http://www.w3.org/1999/xlink"
 width="0.403in" height="0.403in">
<path fill-rule="evenodd"  fill="rgb(246, 145, 59)"
 d="M15.044,22.742 L14.081,22.742 L14.081,21.298 L15.044,21.298 L15.044,22.742 ZM12.458,16.571 C14.017,17.168 15.045,18.666 15.044,20.335 L14.081,20.335 C14.081,19.063 13.297,17.922 12.109,17.467 C10.767,16.942 9.628,16.001 8.860,14.782 C6.877,11.633 7.821,7.472 10.969,5.488 L11.483,6.302 C10.437,6.961 9.631,7.938 9.181,9.089 C8.020,12.061 9.488,15.410 12.458,16.571 ZM28.586,11.017 C28.548,11.280 28.304,11.463 28.041,11.425 L26.170,11.158 C25.977,11.126 25.785,11.219 25.688,11.388 C25.587,11.556 25.598,11.768 25.717,11.923 L26.851,13.436 C27.011,13.649 26.968,13.950 26.755,14.110 L24.446,15.843 C24.233,16.002 23.931,15.959 23.772,15.746 L22.637,14.233 C22.561,14.131 22.447,14.064 22.320,14.046 C22.057,14.008 21.813,14.191 21.776,14.455 L21.509,16.327 C21.475,16.564 21.272,16.740 21.032,16.740 C21.009,16.740 20.987,16.738 20.964,16.736 L18.106,16.327 C18.106,16.327 18.106,16.327 18.106,16.327 C17.843,16.289 17.660,16.045 17.698,15.782 L17.965,13.909 C17.983,13.784 17.950,13.655 17.874,13.554 C17.715,13.341 17.413,13.298 17.200,13.457 L15.688,14.591 C15.475,14.751 15.173,14.708 15.014,14.495 L13.282,12.184 C13.122,11.972 13.165,11.670 13.378,11.511 L14.890,10.376 C14.993,10.299 15.060,10.185 15.078,10.059 C15.116,9.796 14.933,9.552 14.669,9.514 L12.798,9.247 C12.798,9.247 12.797,9.247 12.797,9.247 C12.534,9.209 12.352,8.965 12.389,8.702 L12.798,5.843 L12.798,5.843 C12.836,5.580 13.079,5.397 13.342,5.435 L15.214,5.702 C15.407,5.730 15.597,5.639 15.695,5.471 C15.798,5.304 15.786,5.091 15.666,4.937 L14.532,3.424 C14.456,3.322 14.423,3.193 14.440,3.067 C14.446,3.049 14.452,3.032 14.459,3.014 C11.665,3.024 9.070,4.465 7.583,6.832 C5.187,10.647 6.336,15.683 10.149,18.081 C11.089,18.666 11.664,19.690 11.676,20.797 L11.676,22.742 C11.676,23.274 12.106,23.705 12.638,23.705 L16.487,23.705 C17.019,23.705 17.450,23.274 17.450,22.742 L17.450,20.837 C17.462,19.708 18.047,18.664 19.002,18.064 C19.360,17.832 19.699,17.573 20.016,17.289 L20.658,18.006 C20.303,18.323 19.924,18.613 19.525,18.872 C18.844,19.296 18.425,20.036 18.412,20.837 L18.412,22.742 C18.410,23.427 18.043,24.059 17.450,24.400 L17.450,27.074 C17.450,28.137 16.588,28.999 15.525,28.999 L13.600,28.999 C12.537,28.999 11.676,28.137 11.676,27.074 L11.676,24.400 C11.082,24.059 10.715,23.427 10.713,22.742 L10.713,21.371 L9.966,22.120 C9.802,22.284 9.544,22.308 9.353,22.176 L8.024,21.262 L7.691,22.844 C7.644,23.066 7.448,23.226 7.220,23.226 L5.295,23.226 C5.067,23.226 4.870,23.064 4.825,22.840 L4.492,21.259 L3.163,22.176 C2.972,22.308 2.713,22.284 2.549,22.120 L1.106,20.676 C0.942,20.512 0.918,20.254 1.050,20.063 L1.964,18.733 L0.383,18.400 C0.160,18.353 0.000,18.156 0.000,17.929 L0.000,16.004 C-0.000,15.777 0.157,15.581 0.379,15.532 L1.960,15.200 L1.046,13.869 C0.914,13.679 0.938,13.421 1.102,13.257 L2.545,11.813 C2.710,11.648 2.968,11.625 3.159,11.756 L4.491,12.675 L4.823,11.094 C4.869,10.870 5.066,10.709 5.294,10.709 L5.438,10.709 C5.445,10.573 5.450,10.438 5.463,10.302 C5.880,6.009 9.240,2.591 13.524,2.102 C14.178,2.032 14.838,2.032 15.492,2.102 L16.938,1.016 C17.150,0.856 17.452,0.900 17.611,1.112 L18.746,2.625 C18.822,2.728 18.936,2.795 19.063,2.813 C19.326,2.851 19.569,2.668 19.607,2.405 L19.874,0.532 C19.912,0.269 20.156,0.086 20.419,0.124 L23.275,0.532 C23.276,0.532 23.276,0.533 23.276,0.533 C23.539,0.570 23.722,0.814 23.684,1.077 L23.416,2.950 C23.398,3.077 23.431,3.207 23.509,3.310 C23.670,3.522 23.972,3.563 24.183,3.403 L25.696,2.268 C25.908,2.108 26.210,2.151 26.369,2.364 L28.102,4.674 C28.261,4.887 28.218,5.188 28.005,5.348 L26.492,6.483 C26.390,6.560 26.323,6.674 26.305,6.800 C26.267,7.064 26.450,7.307 26.713,7.345 L28.585,7.612 L28.586,7.613 C28.586,7.613 28.586,7.613 28.586,7.613 C28.849,7.651 29.032,7.894 28.994,8.158 L28.586,11.017 ZM12.638,27.074 C12.638,27.606 13.069,28.037 13.600,28.037 L15.525,28.037 C16.057,28.037 16.487,27.606 16.487,27.074 L16.487,26.593 L12.638,26.593 L12.638,27.074 ZM12.638,25.630 L16.487,25.630 L16.487,24.668 L12.638,24.668 L12.638,25.630 ZM5.516,12.472 L5.432,12.872 C5.406,12.997 5.355,13.116 5.283,13.220 C4.982,13.658 4.382,13.769 3.945,13.467 L2.944,12.778 L2.068,13.654 L2.757,14.655 C2.828,14.760 2.878,14.877 2.904,15.000 C3.014,15.520 2.682,16.031 2.162,16.141 L0.963,16.394 L0.963,17.538 L2.162,17.791 C2.287,17.817 2.406,17.868 2.511,17.940 C2.948,18.242 3.058,18.842 2.756,19.280 L2.068,20.279 L2.944,21.154 L3.944,20.466 C4.049,20.394 4.167,20.343 4.292,20.317 C4.812,20.208 5.323,20.541 5.432,21.061 L5.684,22.261 L6.828,22.261 L7.080,21.059 C7.106,20.934 7.157,20.816 7.229,20.711 C7.531,20.273 8.130,20.163 8.568,20.465 L9.567,21.154 L10.599,20.123 C10.427,19.614 10.084,19.179 9.630,18.891 C9.345,18.707 9.070,18.507 8.807,18.292 C8.369,19.146 7.534,19.726 6.581,19.840 C4.998,20.029 3.561,18.898 3.373,17.314 C3.184,15.730 4.315,14.293 5.898,14.105 C5.721,13.574 5.593,13.027 5.516,12.472 ZM6.256,15.041 C5.444,15.039 4.718,15.548 4.443,16.312 C4.084,17.311 4.602,18.413 5.601,18.772 C6.600,19.131 7.701,18.613 8.060,17.614 C7.321,16.865 6.716,15.995 6.274,15.041 C6.268,15.041 6.262,15.041 6.256,15.041 ZM26.577,8.298 C26.198,8.244 25.856,8.041 25.627,7.735 C25.148,7.097 25.278,6.192 25.915,5.713 L27.043,4.867 L25.888,3.327 L24.761,4.173 C24.454,4.403 24.069,4.501 23.691,4.447 C22.901,4.334 22.353,3.603 22.466,2.813 L22.665,1.418 L20.760,1.146 L20.561,2.541 C20.506,2.920 20.304,3.262 19.997,3.492 C19.360,3.971 18.455,3.841 17.977,3.203 L17.131,2.075 L15.591,3.231 L16.439,4.360 C16.669,4.666 16.768,5.051 16.714,5.431 C16.601,6.220 15.869,6.768 15.080,6.655 L13.685,6.456 L13.412,8.362 L14.808,8.561 C15.187,8.616 15.529,8.818 15.758,9.124 C16.237,9.762 16.107,10.667 15.469,11.146 L14.342,11.992 L15.497,13.532 L16.625,12.687 C16.931,12.457 17.316,12.358 17.695,12.412 C18.485,12.525 19.033,13.257 18.920,14.046 L18.721,15.442 L20.626,15.714 L20.820,14.317 C20.875,13.938 21.077,13.596 21.383,13.366 C22.021,12.887 22.926,13.017 23.404,13.655 L24.250,14.782 L25.790,13.627 L24.945,12.499 C24.715,12.193 24.616,11.808 24.670,11.428 C24.783,10.639 25.514,10.091 26.303,10.203 L27.699,10.402 L27.973,8.497 L26.577,8.298 ZM20.691,12.280 C18.565,12.280 16.842,10.556 16.842,8.429 C16.842,6.302 18.565,4.578 20.691,4.578 C22.816,4.581 24.538,6.304 24.540,8.429 C24.540,10.556 22.817,12.280 20.691,12.280 ZM20.691,5.541 C19.096,5.541 17.804,6.834 17.804,8.429 C17.804,10.024 19.096,11.317 20.691,11.317 C22.285,11.315 23.576,10.024 23.578,8.429 C23.578,6.834 22.285,5.541 20.691,5.541 ZM5.414,0.238 L6.346,-0.001 L7.330,3.850 L6.398,4.088 L5.414,0.238 ZM4.574,8.287 L0.725,9.249 L0.492,8.316 L4.341,7.354 L4.574,8.287 ZM1.291,3.399 L1.850,2.616 L5.218,5.023 L4.659,5.806 L1.291,3.399 ZM21.780,25.149 L20.818,25.149 L20.818,21.779 L21.780,21.779 L21.780,25.149 ZM23.705,17.929 L27.073,17.929 L27.073,18.891 L23.705,18.891 L23.705,17.929 ZM26.419,22.853 L25.803,23.593 L22.916,21.186 L23.532,20.446 L26.419,22.853 Z"/>
</svg>