<svg 
 xmlns="http://www.w3.org/2000/svg"
 xmlns:xlink="http://www.w3.org/1999/xlink"
 width="0.431in" height="0.431in">
<path fill-rule="evenodd"  fill="rgb(246, 145, 59)"
 d="M30.444,20.009 C29.941,20.548 29.188,20.777 28.470,20.610 C26.630,25.246 22.465,28.554 17.534,29.294 C17.361,30.280 16.505,31.000 15.505,31.000 C14.504,31.000 13.648,30.280 13.476,29.294 C8.545,28.554 4.380,25.246 2.540,20.610 C1.820,20.781 1.063,20.554 0.557,20.015 C0.051,19.474 -0.127,18.704 0.091,17.997 C0.309,17.289 0.889,16.752 1.611,16.591 C1.582,16.229 1.561,15.865 1.561,15.499 C1.554,8.576 6.629,2.699 13.476,1.700 C13.651,0.716 14.506,-0.001 15.505,-0.001 C16.503,-0.001 17.358,0.716 17.533,1.700 C24.380,2.699 29.455,8.576 29.448,15.499 C29.448,15.866 29.428,16.230 29.399,16.591 C30.118,16.756 30.694,17.293 30.909,17.998 C31.125,18.703 30.948,19.470 30.444,20.009 ZM15.505,29.966 C16.075,29.966 16.537,29.503 16.538,28.933 C16.538,28.363 16.075,27.899 15.505,27.899 C14.934,27.899 14.472,28.363 14.472,28.933 C14.472,29.503 14.934,29.966 15.505,29.966 ZM16.021,21.468 L18.216,18.001 L16.021,19.084 L16.021,21.468 ZM13.560,28.262 C13.785,27.610 14.321,27.114 14.988,26.940 L14.988,23.399 L10.937,17.000 C10.813,16.805 10.835,16.550 10.989,16.378 C11.144,16.206 11.394,16.157 11.602,16.260 L15.505,18.187 L19.408,16.260 C19.615,16.157 19.865,16.206 20.020,16.378 C20.175,16.550 20.196,16.805 20.072,17.000 L16.021,23.399 L16.021,26.940 C16.688,27.114 17.224,27.610 17.449,28.262 C22.028,27.551 25.879,24.449 27.551,20.126 C27.010,19.649 26.764,18.920 26.905,18.213 L19.567,14.732 L15.748,16.771 C15.596,16.852 15.414,16.852 15.262,16.771 L11.443,14.732 L4.105,18.213 C4.246,18.920 4.000,19.649 3.459,20.126 C5.130,24.449 8.982,27.551 13.560,28.262 ZM14.988,21.468 L14.988,19.084 L12.793,18.001 L14.988,21.468 ZM16.021,13.051 L16.021,15.454 L18.405,14.181 L16.021,13.051 ZM18.173,12.928 L16.021,9.530 L16.021,11.907 L18.173,12.928 ZM12.605,14.181 L14.988,15.454 L14.988,13.051 L12.605,14.181 ZM14.988,11.907 L14.988,9.530 L12.837,12.928 L14.988,11.907 ZM1.045,18.600 C1.046,19.170 1.508,19.632 2.078,19.633 C2.648,19.633 3.111,19.170 3.111,18.600 C3.111,18.029 2.648,17.566 2.078,17.566 C1.507,17.566 1.045,18.029 1.045,18.600 ZM13.562,2.741 C7.253,3.692 2.590,9.117 2.594,15.499 C2.594,15.877 2.617,16.252 2.650,16.623 C3.043,16.738 3.394,16.967 3.656,17.282 L11.089,13.756 L14.988,7.600 L14.988,4.059 C14.323,3.885 13.788,3.392 13.562,2.741 ZM15.505,1.033 C14.935,1.033 14.472,1.496 14.472,2.066 C14.472,2.637 14.934,3.100 15.505,3.100 C16.075,3.100 16.538,2.637 16.538,2.066 C16.538,1.496 16.075,1.033 15.505,1.033 ZM17.448,2.741 C17.222,3.392 16.687,3.885 16.021,4.059 L16.021,7.600 L19.920,13.756 L27.354,17.282 C27.616,16.967 27.966,16.738 28.359,16.623 C28.393,16.253 28.415,15.878 28.415,15.499 C28.420,9.117 23.756,3.692 17.448,2.741 ZM28.932,17.566 C28.361,17.566 27.899,18.029 27.899,18.600 C27.899,19.170 28.361,19.633 28.932,19.633 C29.502,19.632 29.964,19.170 29.964,18.600 C29.964,18.029 29.502,17.566 28.932,17.566 ZM26.346,14.906 C26.328,14.907 26.311,14.909 26.293,14.908 C26.028,14.908 25.807,14.708 25.780,14.444 C25.745,14.100 25.692,13.759 25.623,13.419 C25.555,13.090 25.470,12.757 25.368,12.430 C25.268,12.109 25.151,11.790 25.020,11.482 C24.891,11.177 24.745,10.873 24.585,10.579 C24.427,10.288 24.252,10.001 24.067,9.726 C23.883,9.455 23.683,9.187 23.472,8.931 C23.263,8.678 23.038,8.430 22.804,8.196 C22.570,7.962 22.324,7.738 22.070,7.528 C21.816,7.318 21.548,7.118 21.275,6.932 C21.000,6.747 20.713,6.573 20.423,6.415 C20.130,6.255 19.826,6.109 19.521,5.979 C19.211,5.848 18.892,5.731 18.573,5.631 C18.249,5.530 17.917,5.444 17.584,5.376 C17.450,5.349 17.332,5.269 17.257,5.154 C17.181,5.040 17.154,4.900 17.182,4.766 C17.209,4.632 17.289,4.514 17.403,4.438 C17.518,4.363 17.657,4.336 17.792,4.363 C18.158,4.439 18.524,4.534 18.880,4.645 C19.232,4.755 19.583,4.883 19.923,5.027 C20.260,5.170 20.594,5.331 20.916,5.507 C21.236,5.680 21.551,5.873 21.853,6.077 C22.154,6.280 22.448,6.501 22.728,6.731 C23.006,6.961 23.278,7.208 23.535,7.466 C23.792,7.723 24.039,7.994 24.268,8.273 C24.501,8.554 24.721,8.849 24.923,9.148 C25.126,9.449 25.318,9.765 25.492,10.085 C25.668,10.409 25.829,10.743 25.971,11.079 C26.115,11.417 26.244,11.769 26.354,12.123 C26.466,12.483 26.560,12.850 26.634,13.212 C26.710,13.579 26.768,13.958 26.807,14.339 C26.836,14.623 26.630,14.877 26.346,14.906 ZM13.426,5.376 C13.093,5.444 12.760,5.530 12.437,5.631 C12.117,5.731 11.798,5.848 11.489,5.979 C11.183,6.109 10.880,6.255 10.586,6.415 C10.296,6.573 10.009,6.747 9.735,6.933 C9.461,7.118 9.194,7.318 8.939,7.528 C8.686,7.738 8.439,7.962 8.205,8.196 C7.971,8.430 7.747,8.678 7.538,8.931 C7.328,9.185 7.128,9.453 6.942,9.727 C6.757,10.002 6.582,10.289 6.424,10.579 C6.265,10.872 6.118,11.176 5.989,11.482 C5.858,11.791 5.741,12.110 5.641,12.430 C5.540,12.754 5.455,13.087 5.386,13.419 C5.318,13.754 5.265,14.099 5.229,14.444 C5.203,14.708 4.981,14.908 4.716,14.909 C4.699,14.909 4.681,14.907 4.663,14.906 C4.527,14.892 4.402,14.824 4.315,14.718 C4.229,14.612 4.188,14.475 4.202,14.339 C4.241,13.960 4.299,13.580 4.375,13.212 C4.450,12.845 4.544,12.479 4.655,12.123 C4.765,11.770 4.894,11.419 5.038,11.079 C5.180,10.742 5.341,10.408 5.517,10.085 C5.691,9.766 5.882,9.450 6.086,9.148 C6.290,8.847 6.510,8.552 6.741,8.273 C6.971,7.994 7.217,7.723 7.475,7.466 C7.732,7.208 8.003,6.961 8.282,6.731 C8.561,6.501 8.855,6.280 9.156,6.077 C9.458,5.873 9.774,5.681 10.093,5.507 C10.416,5.331 10.750,5.170 11.086,5.028 C11.426,4.883 11.777,4.755 12.130,4.645 C12.485,4.534 12.852,4.440 13.218,4.364 C13.398,4.327 13.585,4.389 13.708,4.527 C13.830,4.665 13.870,4.858 13.812,5.033 C13.753,5.208 13.606,5.339 13.426,5.376 ZM5.577,19.206 C5.760,19.229 5.917,19.348 5.989,19.517 C6.118,19.823 6.265,20.126 6.424,20.420 C6.582,20.711 6.757,20.997 6.943,21.272 C7.128,21.546 7.328,21.814 7.538,22.068 C7.747,22.321 7.971,22.569 8.205,22.803 C8.439,23.037 8.686,23.261 8.939,23.470 C9.194,23.680 9.461,23.881 9.735,24.066 C10.009,24.252 10.296,24.426 10.587,24.584 C10.880,24.744 11.184,24.890 11.489,25.019 C11.798,25.151 12.117,25.268 12.437,25.368 C12.761,25.469 13.093,25.554 13.426,25.623 C13.685,25.676 13.862,25.917 13.835,26.181 C13.809,26.445 13.587,26.645 13.322,26.646 C13.287,26.646 13.252,26.642 13.218,26.635 C12.852,26.559 12.485,26.465 12.130,26.354 C11.778,26.245 11.426,26.116 11.086,25.971 C10.750,25.829 10.416,25.667 10.093,25.492 C9.774,25.318 9.459,25.127 9.156,24.922 C8.855,24.718 8.561,24.498 8.282,24.267 C8.003,24.037 7.732,23.791 7.475,23.533 C7.218,23.276 6.971,23.004 6.741,22.726 C6.511,22.447 6.290,22.152 6.087,21.851 C5.882,21.549 5.691,21.233 5.517,20.914 C5.342,20.591 5.181,20.257 5.038,19.920 C4.966,19.751 4.990,19.555 5.101,19.408 C5.212,19.260 5.394,19.184 5.577,19.206 ZM21.275,24.066 C21.548,23.881 21.816,23.680 22.070,23.470 C22.324,23.261 22.570,23.037 22.804,22.803 C23.038,22.569 23.263,22.321 23.472,22.068 C23.683,21.811 23.883,21.544 24.066,21.272 C24.252,20.998 24.427,20.711 24.585,20.420 C24.745,20.126 24.891,19.822 25.020,19.518 C25.131,19.255 25.434,19.132 25.697,19.243 C25.823,19.297 25.923,19.398 25.974,19.525 C26.026,19.652 26.025,19.794 25.971,19.920 C25.830,20.256 25.668,20.590 25.493,20.913 C25.318,21.234 25.127,21.549 24.922,21.851 C24.721,22.149 24.501,22.444 24.268,22.726 C24.039,23.004 23.792,23.276 23.535,23.533 C23.278,23.791 23.006,24.037 22.728,24.267 C22.448,24.498 22.154,24.718 21.854,24.922 C21.551,25.126 21.236,25.318 20.917,25.492 C20.594,25.667 20.260,25.829 19.924,25.971 C19.583,26.116 19.232,26.244 18.880,26.354 C18.524,26.465 18.158,26.559 17.792,26.635 C17.512,26.692 17.239,26.512 17.182,26.233 C17.125,25.953 17.305,25.680 17.584,25.623 C17.917,25.554 18.249,25.469 18.572,25.368 C18.893,25.268 19.212,25.151 19.521,25.019 C19.826,24.890 20.130,24.744 20.423,24.584 C20.713,24.426 21.000,24.252 21.275,24.066 Z"/>
</svg>